<?xml version="1.0" encoding="utf-8"?>
<!-- Generator: Adobe Illustrator 27.1.0, SVG Export Plug-In . SVG Version: 6.00 Build 0)  -->
<svg version="1.1" id="Layer_1" xmlns="http://www.w3.org/2000/svg" xmlns:xlink="http://www.w3.org/1999/xlink" x="0px" y="0px"
	 viewBox="0 0 141 169" style="enable-background:new 0 0 141 169;" xml:space="preserve">
<style type="text/css">
	.st0{fill:#F906ED;stroke:#FFFFFF;stroke-width:4;stroke-miterlimit:10;}
	.st1{fill:none;stroke:#FFFFFF;stroke-width:4;stroke-miterlimit:10;}
	.st2{fill:#FFFFFF;stroke:#FFFFFF;stroke-miterlimit:10;}
</style>
<g id="BOLSA">
	<path class="st0" d="M97,58.12H45.85H20.78c-7,1.5-8,68.5-7.07,82.72c0.93,14.22,19.29,14.78,19.29,14.78h38.44h-0.02h38.44
		c0,0,18.36-0.57,19.29-14.78s-0.07-81.22-7.07-82.72H97H74.17H45.85"/>
	<path class="st1" d="M45.85,57.8c-1.43-33,25.58-33.68,25.58-33.68h-0.02c0,0,27.01,0.68,25.58,33.68"/>
	<path class="st2" d="M94.73,122.62c0,9.83-11.33,3.68-24.55,3.68s-24.55,6.15-24.55-3.68s10.71-20.86,23.93-20.86
		S94.73,112.8,94.73,122.62z"/>
	
		<ellipse transform="matrix(0.815 -0.5795 0.5795 0.815 -50.7421 43.6738)" class="st2" cx="43.03" cy="101.31" rx="6.75" ry="7.36"/>
	
		<ellipse transform="matrix(0.3405 -0.9403 0.9403 0.3405 -31.9007 158.4952)" class="st2" cx="97.03" cy="101.99" rx="7.36" ry="6.75"/>
	
		<ellipse transform="matrix(0.2205 -0.9754 0.9754 0.2205 -26.0212 148.4128)" class="st2" cx="79.85" cy="90.49" rx="7.36" ry="6.75"/>
	
		<ellipse transform="matrix(0.9445 -0.3286 0.3286 0.9445 -26.3193 25.2086)" class="st2" cx="61.44" cy="90.49" rx="6.75" ry="7.36"/>
</g>
</svg>
