<?xml version="1.0" encoding="utf-8"?>
<!-- Generator: Adobe Illustrator 27.1.0, SVG Export Plug-In . SVG Version: 6.00 Build 0)  -->
<svg version="1.1" id="Layer_1" xmlns="http://www.w3.org/2000/svg" xmlns:xlink="http://www.w3.org/1999/xlink" x="0px" y="0px"
	 viewBox="0 0 141 169" style="enable-background:new 0 0 141 169;" xml:space="preserve">
<style type="text/css">
	.st0{fill:#FF00E7;}
	.st1{fill:none;stroke:#FFFFFF;stroke-width:4;stroke-miterlimit:10;}
	.st2{fill:none;stroke:#FFFFFF;stroke-width:3;stroke-miterlimit:10;}
	.st3{fill:none;stroke:#FFFFFF;stroke-width:2;stroke-miterlimit:10;}
</style>
<g id="USUARIO">
	<path class="st0" d="M52.9,136.62c0,0-5.47,1.79-3.23-2.61s3.79-12.69,3.79-12.69s-40.02-4.14-46.79-24.42
		c0,0-2.17-24.89,18.53-25.09c20.7-0.2,14.76-6.3,16.23-10.25s3.47-23.95,45.82-23.28c0,0,26.42,1.51,34.65,25.33
		c0,0,13.91,35.18,10.95,44.09c-2.95,8.91-2.92,11.05-2.92,11.05s8.5,12.64,6.74,14.25c0,0-2.12,3.2-3.44,1.9
		c-1.32-1.29,2.68,10.71,2.68,10.71s-37,14-85,3L52.9,136.62z"/>
	<g id="PERROS_00000041266713827405521100000013995577383010553274_">
		<g id="PERRO_00000172439437581521057220000011906883527279389592_">
			<path class="st1" d="M120.4,59.12c2.96,0.95,12.77,45.81,12.19,48.7c-1.36,6.76-5.16,10.96-5.98,11.83
				c-0.77,0.82-5.99,6.35-11.26,6.63c-9.68,0.51-21.55-11.43-19.7-28.31"/>
			<path class="st1" d="M121.4,60.12c-27-40-71.21-13.1-71.21-13.1c-3.24,2.52-6.34,5.82-8.08,10.41
				c-2.13,5.62,0.27,9.93-3.69,12.31c-6.16,3.69-13.53,0.63-20.93,3.69C9.3,76.82,6.69,86.89,6.41,93.12
				c-0.5,11.12,17.7,24.93,46.78,28.31c-0.54,7-1.79,8.69-3.79,12.69c0,0-3,4,3,3"/>
			<path class="st2" d="M135.4,146.12"/>
			<path class="st1" d="M129.67,115.67c0.22,5.05,2.74,10.45,6.74,17.45c0,0,0.65,2.59-3.18,1.79"/>
			<path class="st3" d="M48.9,141.62"/>
			<path class="st1" d="M52.9,136.62c0,0,45.12,7,80-3l3,12c0,0-35,13-85,3L52.9,136.62z"/>
		</g>
	</g>
</g>
</svg>
