<?xml version="1.0" encoding="utf-8"?>
<!-- Generator: Adobe Illustrator 27.1.0, SVG Export Plug-In . SVG Version: 6.00 Build 0)  -->
<svg version="1.1" id="Layer_1" xmlns="http://www.w3.org/2000/svg" xmlns:xlink="http://www.w3.org/1999/xlink" x="0px" y="0px"
	 viewBox="0 0 355 356" style="enable-background:new 0 0 355 356;" xml:space="preserve">
<style type="text/css">
	.st0{fill:#FF00E7;}
	.st1{fill:none;stroke:#FFFFFF;stroke-width:4;stroke-miterlimit:10;}
	.st2{fill:none;stroke:#FFFFFF;stroke-width:0.5;stroke-miterlimit:10;}
	.st3{fill:none;stroke:#FFFFFF;stroke-width:3;stroke-miterlimit:10;}
</style>
<g id="BAÑO">
	<circle id="FONDO" class="st0" cx="177.86" cy="177.7" r="119.56"/>
	<g id="PERRO">
		<path class="st1" d="M216.61,173.11c2.87,0.92,0.93,7.49,1.1,8.37c1.7,8.68-0.01,10.39,2.38,26.22
			c1.91,12.62,1.76,13.89,1.19,16.68c-1.32,6.54-4.99,10.61-5.79,11.46c-0.74,0.8-5.8,6.15-10.9,6.42
			c-9.37,0.5-20.87-11.06-19.07-27.41"/>
		<path class="st1" d="M216.51,233.91c0.45,3.75,5.21,22.18,8.34,23.84c3.12,1.65,6.74,0.1,7.15,1.19c0.41,1.07-6.01,2.95-9.53,3.58
			c-7.27,1.3-10.1-7.28-11.92-5.96c-1.84,1.34,4.28,11.73,2.38,13.11c-1.69,1.23-7.64-6.31-10.73-4.77
			c-3.17,1.59-0.62,11.44-2.38,11.92c-1.84,0.5-6-9.95-7.15-9.53c-1.01,0.36-0.62,8.68-2.38,9.53c-1.1,0.53-3.42-0.87-4.77-2.38
			c-4.95-5.54-2.88-7.04-4.77-7.15c-3.23-0.2-5.97,9.83-7.15,9.53c-1.17-0.3-0.01-11.65-1.19-11.92
			c-0.82-0.19-3.58,10.73-10.73,11.92c1.19-4.77,3.96-13.11,1.19-13.11s-11.92,11.92-8.34,0c3.42-11.42-3.58-2.38-3.58-2.38
			s-14.3,8.34-7.15-1.19c7.15-9.53,8.34-27.41,8.34-27.41c-28.16-3.27-45.77-16.65-45.29-27.41c0.27-6.03,2.8-15.79,10.73-19.07
			c7.16-2.96,14.3,0,20.26-3.58c3.83-2.3,1.51-6.48,3.58-11.92c1.68-4.44,4.68-7.63,7.82-10.07"/>
		<path class="st1" d="M147.78,157.79c1.63-1.5-0.33-8.01-4.77-11.92c-3.34-2.94-5.5-2.14-7.15-4.77
			c-2.86-4.55,0.86-11.33,1.19-11.92c3.47-6.14,10.01-7.85,11.92-8.34c6.26-1.63,8.31,2.68,14.3,1.19c4.73-1.17,4.49-3.76,9.53-5.96
			c6.25-2.72,14.56-2.42,20.26,1.19c5.87,3.72,1.36,7.91,11.92,11.92c7.25,2.75,10.59-1.27,17.88,1.19
			c11.04,3.73,18.38,19.73,14.3,26.22c-1.57,2.5-5.13,4.05-9.53,5.96c-3.25,1.41-6.47,0.7-7.15,2.38c-0.45,1.12,0.18,2.72,1.19,3.58
			c2.04,1.73,4.91-0.12,5.96,1.19c1.03,1.29-0.12,5.11-2.38,5.96c-3.26,1.23-6.34-4.65-10.73-3.58c-2.45,0.6-3.4,2.9-4.77,2.38
			c-1.55-0.59-0.64-3.64-2.38-4.77c-2.14-1.38-4.99,2.27-8.34,1.19c-2.76-0.89-2.22-3.82-4.77-4.77c-4-1.49-7.63,4.88-11.92,3.58
			c-3.21-0.98-2.72-5.01-5.96-5.96c-4.36-1.28-9.28,4.84-10.73,3.58c-0.97-0.84,1.07-3.71,0-4.77c-1.25-1.24-4.56,2.25-9.53,2.38
			c-4.82,0.13-5.42-3.04-10.73-3.58c-6.62-0.67-10.81,3.75-11.92,2.38c-0.97-1.19,1.17-5.86,4.77-7.15
			C142.51,155.07,146.23,159.22,147.78,157.79z"/>
		<path class="st2" d="M100.41,154.47"/>
	</g>
	<g id="BURBUJAS">
		<g>
			<g>
				<g>
					<circle class="st3" cx="90" cy="158.9" r="17.08"/>
				</g>
			</g>
			<g>
				<g>
					<g>
						<defs>
							<path id="SVGID_1_" d="M93.5,151.89c3.5,0.67,7.92,5.77,7.92,5.77s-0.04-2.89-3.02-6.94c-0.67-0.91-2.54-2.55-3.9-3.26
								c-2.7-1.41-5-1.41-5.72-0.02C88.04,148.84,90.67,151.35,93.5,151.89z"/>
						</defs>
						<clipPath id="SVGID_00000074426132299234882710000015802379013722001811_">
							<use xlink:href="#SVGID_1_"  style="overflow:visible;"/>
						</clipPath>
						<use xlink:href="#SVGID_1_"  style="overflow:visible;fill:none;stroke:#FFFFFF;stroke-miterlimit:10;"/>
					</g>
				</g>
			</g>
		</g>
		<g>
			<g>
				<g>
					<circle class="st3" cx="117.16" cy="110.87" r="10.84"/>
				</g>
			</g>
			<g>
				<g>
					<g>
						<defs>
							<path id="SVGID_00000176024672856360442690000010287804445377404858_" d="M119.38,106.42c2.22,0.42,5.03,3.66,5.03,3.66
								s-0.02-1.83-1.91-4.4c-0.42-0.58-1.61-1.62-2.48-2.07c-1.71-0.89-3.17-0.89-3.63-0.01
								C115.92,104.48,117.58,106.08,119.38,106.42z"/>
						</defs>
						<clipPath id="SVGID_00000132786387420292984830000001558784287488445839_">
							<use xlink:href="#SVGID_00000176024672856360442690000010287804445377404858_"  style="overflow:visible;"/>
						</clipPath>
						
							<use xlink:href="#SVGID_00000176024672856360442690000010287804445377404858_"  style="overflow:visible;fill:none;stroke:#FFFFFF;stroke-miterlimit:10;"/>
					</g>
				</g>
			</g>
		</g>
		<g>
			<g>
				<g>
					<circle class="st3" cx="247.32" cy="179.17" r="10.84"/>
				</g>
			</g>
			<g>
				<g>
					<g>
						<defs>
							<path id="SVGID_00000132773696167717017560000016635365471247173002_" d="M249.54,174.72c2.22,0.42,5.03,3.66,5.03,3.66
								s-0.02-1.83-1.91-4.4c-0.42-0.58-1.61-1.62-2.48-2.07c-1.71-0.89-3.17-0.89-3.63-0.01
								C246.08,172.78,247.74,174.38,249.54,174.72z"/>
						</defs>
						<clipPath id="SVGID_00000160187426416074766680000012594147707461094838_">
							<use xlink:href="#SVGID_00000132773696167717017560000016635365471247173002_"  style="overflow:visible;"/>
						</clipPath>
						
							<use xlink:href="#SVGID_00000132773696167717017560000016635365471247173002_"  style="overflow:visible;fill:none;stroke:#FFFFFF;stroke-miterlimit:10;"/>
					</g>
				</g>
			</g>
		</g>
		<g>
			<g>
				<g>
					<circle class="st3" cx="254.27" cy="224.69" r="17.08"/>
				</g>
			</g>
			<g>
				<g>
					<g>
						<defs>
							<path id="SVGID_00000177457584900313629340000008042816005509149312_" d="M257.77,217.68c3.5,0.67,7.92,5.77,7.92,5.77
								s-0.04-2.89-3.02-6.94c-0.67-0.91-2.54-2.55-3.9-3.26c-2.7-1.41-5-1.41-5.72-0.02C252.31,214.62,254.94,217.14,257.77,217.68
								z"/>
						</defs>
						<clipPath id="SVGID_00000111179608867237930980000015235730506727917967_">
							<use xlink:href="#SVGID_00000177457584900313629340000008042816005509149312_"  style="overflow:visible;"/>
						</clipPath>
						
							<use xlink:href="#SVGID_00000177457584900313629340000008042816005509149312_"  style="overflow:visible;fill:none;stroke:#FFFFFF;stroke-miterlimit:10;"/>
					</g>
				</g>
			</g>
		</g>
		<g>
			<g>
				<g>
					<circle class="st3" cx="218.9" cy="94.44" r="15.59"/>
				</g>
			</g>
			<g>
				<g>
					<g>
						<defs>
							<path id="SVGID_00000089558103253143481770000018211924143357422498_" d="M222.09,88.04c3.19,0.61,7.23,5.27,7.23,5.27
								s-0.03-2.64-2.75-6.34c-0.61-0.83-2.31-2.33-3.56-2.97c-2.47-1.28-4.56-1.28-5.22-0.02
								C217.11,85.25,219.51,87.55,222.09,88.04z"/>
						</defs>
						<clipPath id="SVGID_00000044885464486113964880000010758253958719728306_">
							<use xlink:href="#SVGID_00000089558103253143481770000018211924143357422498_"  style="overflow:visible;"/>
						</clipPath>
						
							<use xlink:href="#SVGID_00000089558103253143481770000018211924143357422498_"  style="overflow:visible;fill:none;stroke:#FFFFFF;stroke-miterlimit:10;"/>
					</g>
				</g>
			</g>
		</g>
	</g>
</g>
</svg>
