<?xml version="1.0" encoding="utf-8"?>
<!-- Generator: Adobe Illustrator 27.1.0, SVG Export Plug-In . SVG Version: 6.00 Build 0)  -->
<svg version="1.1" id="Layer_1" xmlns="http://www.w3.org/2000/svg" xmlns:xlink="http://www.w3.org/1999/xlink" x="0px" y="0px"
	 viewBox="0 0 355 356" style="enable-background:new 0 0 355 356;" xml:space="preserve">
<style type="text/css">
	.st0{fill:#FF00E7;}
	.st1{fill:none;stroke:#FFFFFF;stroke-width:4;stroke-miterlimit:10;}
	.st2{fill:none;stroke:#FFFFFF;stroke-width:3;stroke-miterlimit:10;}
	.st3{fill:none;stroke:#FCFCFC;stroke-width:4;stroke-miterlimit:10;}
	.st4{fill:none;stroke:#FFFFFF;stroke-width:2;stroke-miterlimit:10;}
</style>
<g id="ENTRENAMIENTO">
	<circle class="st0" cx="177.5" cy="179.07" r="119.56"/>
	<path class="st1" d="M221.07,151c2.87,0.92,12.36,44.35,11.8,47.14c-1.32,6.54-4.99,10.61-5.79,11.46c-0.74,0.8-5.8,6.15-10.9,6.42
		c-9.37,0.5-20.87-11.06-19.07-27.41"/>
	<path class="st1" d="M222.03,151.96c-26.14-38.72-68.94-12.69-68.94-12.69c-3.14,2.44-6.14,5.64-7.82,10.07
		c-2.06,5.44,0.26,9.62-3.58,11.92c-5.96,3.58-13.1,0.61-20.26,3.58c-7.93,3.28-10.46,13.04-10.73,19.07
		c-0.26,5.89,11.95,10.12,21.29,15.49"/>
	<path class="st2" d="M230.03,204.77c0.21,4.89,2.65,10.12,6.52,16.9c0,0,0.63,2.51-3.08,1.74"/>
	<path class="st1" d="M160.64,226.66c12.35,1.43,45.6,4.18,72.53-3.54l2.9,11.62c0,0-33.27,12.36-80.97,3.16"/>
	<g>
		<path class="st3" d="M151.1,113.28l-0.71,26.1c0,0,21.3-14.52,60.99-1.94c0,0,2.08-22.86,1.15-23.3
			C206.8,111.43,183.81,102.37,151.1,113.28l-26.9-11.08l56.43-21.62l56.96,20.57l-9.94,5.53l-14.2,7.91"/>
		<path class="st1" d="M227.84,106.95v20.65c0,0-2.11,0.35-2.9,2.6c-0.79,2.26-1.85,22.87,0,20.82c1.85-2.05,4.11-1.55,4.82,0.14
			c0.72,1.7,2.17-21.76,0-22.84c-2.45-1.21-3.5,0.24-3.5,0.24"/>
	</g>
	<path class="st4" d="M152.71,211.16c4.37,3.72,8.09,7.48,8.82,10.02c1.94,6.78-1.94,18.39-14.52,19.36
		c-8.96,0.69-11.64-4.51-12.45-7.56c-0.33-1.24-0.34-2.12-0.34-2.12s2.14-15.49,16.67-10.65c14.52,4.84,3.32,14.52-0.28,15.01
		c-3.6,0.48-13.28-0.48-10.37-5.32c2.9-4.84,9.13-8.4,8.92-3.23"/>
	<path class="st4" d="M131.51,198.92c0,0,13.92,6.05,21.2,12.24"/>
	<path class="st4" d="M136.36,236.67c0,0-36.79-48.41-42.6-51.31c-5.81-2.9,7.74-16.46,15.49-14.52l2.68,1.04"/>
	<path class="st4" d="M114.09,189.24c-0.97,0-8.13,6.11-8.71,10.65c0,0-13.28-8.1-16.8-1.63c-3.53,6.47-0.53,11.45,3.78,11.38
		c4.31-0.07,13.02-9.75,13.02-9.75s-5.77,9.19-5.79,15.24c-0.02,6.06,10.63,9.02,12.57,4.63s-5.81-17.94-5.81-17.94
		s-31.88,25.59-19.33,43.29"/>
	<path class="st4" d="M105.38,199.89c0,0-18.39,30.01-9.68,49.37"/>
	<path class="st2" d="M178.47,231.35"/>
	<path class="st4" d="M151.84,227.96"/>
</g>
</svg>
