<?xml version="1.0" encoding="utf-8"?>
<!-- Generator: Adobe Illustrator 27.1.0, SVG Export Plug-In . SVG Version: 6.00 Build 0)  -->
<svg version="1.1" id="Layer_1" xmlns="http://www.w3.org/2000/svg" xmlns:xlink="http://www.w3.org/1999/xlink" x="0px" y="0px"
	 viewBox="0 0 98.5 99" style="enable-background:new 0 0 98.5 99;" xml:space="preserve">
<style type="text/css">
	.st0{fill:#F916CE;}
	.st1{opacity:0.49;fill:#6EC9DE;enable-background:new    ;}
	.st2{fill:#EC9C33;}
	.st3{fill:#B9812D;}
	.st4{fill:#C7AB84;}
	.st5{fill:#ECD8CD;}
	.st6{fill:#333333;}
	.st7{fill:#FFFFFF;}
	.st8{fill:#C1D1D5;}
</style>
<g>
	<ellipse class="st0" cx="49.35" cy="49.57" rx="48.71" ry="48.71"/>
	<path class="st1" d="M98.06,49.57c0,26.9-21.81,48.7-48.71,48.7V0.86C76.25,0.86,98.06,22.67,98.06,49.57z"/>
	<g>
		<polygon class="st2" points="66.53,78.93 62.73,80.31 41.9,80.31 41.9,79.27 42.58,77.52 44.56,77.06 46.43,77.58 50.96,76.5 
			44.9,72.99 44.5,70.84 45.52,68.52 44.45,67.62 42.2,65.74 41.6,72.74 40.06,77.01 40.55,77.31 39.87,77.69 39.87,78.4 
			39.34,78.4 38.89,80.31 32.01,80.31 31.88,79.78 32.62,78.31 33.18,78.31 34.82,77.86 36.63,72.14 36.13,58.84 33.77,54.57 
			33.15,50.2 34.31,47.91 34.71,43.16 37.08,40.33 36.46,38.74 35.61,39.02 35.33,38.12 34.37,38.12 35.48,34 35.45,33.73 
			31.18,33.32 28.77,31.25 28.84,30.64 27.41,27.97 27.41,25.83 28.5,25.78 33.18,25.57 35.75,23.55 38.05,23.55 37.75,22.38 
			40.52,17.66 41.22,18.28 41.15,19.24 42.15,18.32 42.7,19.62 42.33,23.75 43.33,24.4 44.1,26.34 45.12,27.82 45.24,30.31 
			47.22,34.11 47.26,34.2 47.28,34.23 48.14,36.07 48.15,36.08 48.92,39.37 53.33,43.67 56.09,50.23 58.91,60.14 63.61,63.99 
			66.27,68.86 66.2,75.03 		"/>
		<polygon class="st3" points="79.58,77.44 79.58,80.31 62.73,80.31 66.53,78.93 66.2,75.03 69.77,73.95 73.88,75.18 75.78,74.75 		
			"/>
		<polygon class="st4" points="42.7,19.62 42.33,23.75 40.88,22.81 41.15,19.24 42.15,18.32 		"/>
		<polygon class="st5" points="58.09,67.73 50.62,65.06 47.68,65.8 45.52,68.52 44.45,67.62 47.51,64.73 51.41,63.99 		"/>
		<polygon class="st5" points="41.6,72.74 40.06,77.01 40.54,77.31 39.87,77.69 39.87,78.4 39.34,78.4 38.89,80.31 37.61,80.31 
			40.52,72.54 41.33,65.01 42.2,65.74 		"/>
		<polygon class="st6" points="29.08,26.03 28.37,27.66 27.72,27.98 27.72,26.08 		"/>
		<polygon class="st5" points="41.33,65.01 42.89,62.12 43.29,58.21 43.8,62.4 42.2,65.74 		"/>
		<polygon class="st5" points="66.53,78.93 62.73,80.31 50.37,80.31 58.3,79.55 62.26,76.78 62.01,76.16 62.43,76.16 62.43,75.48 
			63.45,75.68 65.52,69 62.29,65.26 58.58,61.36 58.38,61.36 58.24,60.93 57.84,60.93 58.09,60.14 54.2,50.06 51.27,43.89 
			46.32,39.47 45.98,40.15 45.7,38.74 45.14,38.74 45.1,38.43 45.98,37.01 44.94,35 44.66,34.91 43.83,34.67 42.7,34.16 
			43.55,33.59 42.93,32.85 44.18,32.85 44.18,28.6 43.8,28.08 43.33,24.4 44.1,26.34 45.12,27.82 45.24,30.31 47.22,34.11 
			47.26,34.2 47.28,34.23 48.14,36.07 48.15,36.08 48.92,39.37 53.33,43.67 56.09,50.23 58.91,60.14 63.61,63.99 66.27,68.86 
			66.2,75.03 		"/>
		<polygon class="st7" points="48.68,35.98 36.61,40.61 35.93,38.88 47.66,33.82 47.71,33.92 47.74,33.98 48.68,35.97 		"/>
		<path class="st6" d="M36.85,26.03c0,0.36-0.29,0.66-0.66,0.66c-0.36,0-0.66-0.29-0.66-0.66c0-0.36,0.29-0.66,0.66-0.66
			C36.55,25.37,36.85,25.67,36.85,26.03z"/>
	</g>
	<path class="st8" d="M93.65,69.82c-7.55,16.5-24.05,28.05-43.3,28.43L32.4,80.31h6.48l0.46-1.91h0.52v-0.71l0.68-0.38l-0.49-0.3
		l1.55-4.27l0.6-7l2.25,1.88l1.07,0.9l-1.02,2.32l0.39,2.15l6.06,3.51l-4.52,1.08l-1.88-0.52l-1.97,0.46l-0.68,1.75v1.04h37.68
		v-2.87l-3.8-2.69l-1.91,0.43l-4.11-1.23l-3.57,1.08l0.08-6.17l-2.66-4.87l-4.7-3.85l-2.82-9.91l-2.76-6.56l-4.41-4.3l-0.75-3.2
		l0.51-0.19l-0.01-0.01l-0.93-1.99l-0.03-0.06l-0.05-0.1l-0.49,0.21l-1.94-3.72l-0.11-2.49l-1.02-1.48l-0.77-1.94l-1-0.65l0.37-4.13
		l-0.55-1.3L93.65,69.82z"/>
</g>
</svg>
