<?xml version="1.0" encoding="utf-8"?>
<!-- Generator: Adobe Illustrator 27.1.0, SVG Export Plug-In . SVG Version: 6.00 Build 0)  -->
<svg version="1.1" id="Layer_1" xmlns="http://www.w3.org/2000/svg" xmlns:xlink="http://www.w3.org/1999/xlink" x="0px" y="0px"
	 viewBox="0 0 355 356" style="enable-background:new 0 0 355 356;" xml:space="preserve">
<style type="text/css">
	.st0{fill:#FF00E7;}
	.st1{fill:none;stroke:#FCFCFC;stroke-width:4;stroke-miterlimit:10;}
	.st2{fill:none;stroke:#FFFFFF;stroke-width:4;stroke-miterlimit:10;}
</style>
<g id="PASEO_00000077313272229609316470000014241193591648389505_">
	<circle class="st0" cx="177.18" cy="180.33" r="119.56"/>
	<g>
		<path class="st1" d="M296.74,188.02c-32.61,8.07-78.8-12.4-86.45-16.78"/>
		<path class="st1" d="M157.24,298.23c0.91-1.27,2.07-2.56,3.56-3.77c1.7-1.39,15.92-7.13,27.94-11.96
			c9.16-3.68,17.05-6.82,17.16-7.09c0,0,7.89-1.13,9.02-4.51s-1.13-11.27-1.13-11.27l9.02-3.38c0,0,21.32,2.37,43.86,3.38"/>
		<path class="st1" d="M179.96,171.69c0,0-6.76,18.04,9.02,20.29s23.68-13.53,23.68-13.53s-1.13-54.12-27.06-46.23
			c0,0-24.8-8.34-37.77-0.79s-11.84,21.08-11.84,21.08s-27.06,4.51-27.06,20.29s12.4,23.68,36.08,24.8s15.78,8.05,15.78,8.05
			l-6.76,5.48h6.76l1.13,3.38c0,0,2.25-6.76,2.25,2.25c0,9.02,7.89,34.95,7.89,34.95s-9.02,18.04-22.55,29.31
			c-4.84,4.04-7.81,8.65-9.62,12.91"/>
		<path class="st1" d="M220.25,291.9c-1.91-5.46-4.16-11.85-6.13-17.24"/>
		<path class="st1" d="M195.5,282.41c3.68,4.53,7.64,9.72,10.27,14.04"/>
	</g>
	<path class="st2" d="M160.79,204.65c20.78,10.27,51.09-6.27,57.48-22.23l67.82-51.49"/>
</g>
</svg>
