<?xml version="1.0" encoding="utf-8"?>
<!-- Generator: Adobe Illustrator 27.1.0, SVG Export Plug-In . SVG Version: 6.00 Build 0)  -->
<svg version="1.1" id="Layer_1" xmlns="http://www.w3.org/2000/svg" xmlns:xlink="http://www.w3.org/1999/xlink" x="0px" y="0px"
	 viewBox="0 0 99 99" style="enable-background:new 0 0 99 99;" xml:space="preserve">
<style type="text/css">
	.st0{fill:#F916CE;}
	.st1{opacity:0.49;fill:#7E5557;}
	.st2{fill:#F2F2F2;}
	.st3{fill:#F9A61F;}
	.st4{fill:#FFFFFF;}
	.st5{fill:#E8E8E8;}
	.st6{fill:#BAC4C9;}
	.st7{fill:#323532;}
	.st8{fill:#7A5E4F;}
	.st9{fill:#F1D7B9;}
	.st10{fill:#DFE2E2;}
	.st11{fill:#916F5D;}
	.st12{fill:#4CB6BC;}
	.st13{fill:#F7B829;}
	.st14{fill:#CECED4;}
</style>
<g>
	<path class="st0" d="M97.99,49.18c0,26.9-21.81,48.71-48.71,48.71S0.58,76.08,0.58,49.18c0-26.9,21.81-48.71,48.71-48.71
		S97.99,22.28,97.99,49.18z"/>
	<path class="st1" d="M97.99,49.18c0,26.9-21.81,48.7-48.71,48.7V0.47C76.18,0.47,97.99,22.28,97.99,49.18z"/>
	<g>
		<g>
			
				<rect x="60.38" y="71.71" transform="matrix(0.1371 -0.9906 0.9906 0.1371 -18.9762 124.6285)" class="st2" width="3.33" height="3"/>
			<path class="st3" d="M63.75,73.69l-0.07,1.94c-0.02,0.2-0.08,0.39-0.17,0.57l-7.31-1.02c0.16-1.54,1.12-1.93,2.15-1.97l2.17,0.02
				c0.02,0.73,0.57,1.35,1.32,1.46c0.75,0.1,1.44-0.35,1.66-1.04L63.75,73.69z"/>
			
				<rect x="59.62" y="71.49" transform="matrix(0.137 -0.9906 0.9906 0.137 -23.0556 124.4857)" class="st4" width="0.58" height="7.97"/>
		</g>
		
			<rect x="73.44" y="70.29" transform="matrix(0.9449 -0.3273 0.3273 0.9449 -19.4215 28.4886)" class="st2" width="3" height="3.33"/>
		<path class="st3" d="M73.28,74.89l-2.92-0.03c0.15-1.15,0.96-1.56,1.85-1.7l0.94-0.11L73.28,74.89z"/>
		<path class="st3" d="M77.6,73.96l-4.15,1.44l-0.21-0.47l-0.75-1.68l1.11-0.55c0.35,0.63,1.12,0.94,1.83,0.7
			c0.71-0.25,1.12-0.97,1.01-1.68l0.24-0.08l0.82,1.76c0.01,0.02,0.01,0.05,0.02,0.07C77.57,73.61,77.6,73.79,77.6,73.96z"/>
		<polygon class="st4" points="73.48,75.46 70.06,75.45 70.07,74.86 70.35,74.86 73.28,74.89 73.48,75.46 		"/>
		<polygon class="st4" points="77.94,73.91 73.48,75.46 73.45,75.39 73.24,74.92 77.51,73.44 77.74,73.36 		"/>
		<g>
			<polygon class="st5" points="23.41,54.62 23,55.61 23,57.12 21.65,57.92 21.27,58.63 18.8,60.18 18.8,60.59 19.76,61.41 
				20.33,61.64 23.68,60.66 24.34,60.72 25.55,62.07 26.38,64.39 26.29,65.35 26.15,66.02 26.22,67.53 26.04,68.3 22.37,72.36 
				20.17,74.21 19.05,74.54 18.56,75.64 20.43,75.64 20.93,74.83 22.33,73.95 22.87,73.96 28.34,69.24 28.43,68.71 28.82,68.38 
				30.01,68.83 31.32,72.73 31.32,73.15 33.75,75.64 34.33,75.55 34.33,74.28 33.38,74.04 32.58,73.38 32.78,73.07 32.33,70.71 
				32.32,68.79 33.51,68.65 36.41,67.16 36.5,69.16 37.57,71.55 37.57,72.82 36.1,74.89 35.11,74.91 34.53,75.64 34.62,76.18 
				36.01,76.18 38.57,74.12 39.51,73.58 39.51,72.97 39.01,70.53 40.38,67.93 42.33,69.9 46.41,71.97 48.88,75.21 49.46,75.84 
				50.15,75.81 50.33,74.38 49.3,74.09 48.11,71.87 47.98,70.85 47.26,70.35 46.66,70.3 44.92,68.25 44.09,65.68 43.35,63.84 
				42.16,62.3 43.17,61.18 43.14,60.68 42.53,60.67 41.47,61.53 35.79,61.27 31.23,60.63 28.63,59.57 25.72,57.56 24.79,57.13 
				23.73,55.23 			"/>
			<polygon class="st6" points="28.82,68.38 28.43,68.71 28.34,69.24 22.87,73.96 22.33,73.95 20.93,74.83 20.43,75.64 18.56,75.64 
				19.05,74.54 20.17,74.21 22.36,72.36 26.04,68.3 26.22,67.53 26.15,66.02 26.29,65.35 26.38,64.39 26.81,66.78 			"/>
			<polygon class="st6" points="39,70.53 39.51,72.97 39.51,73.58 38.57,74.12 36.01,76.19 34.62,76.19 34.53,75.64 35.11,74.91 
				36.1,74.89 37.57,72.82 37.57,71.55 36.5,69.16 36.41,67.16 38.07,66.39 40.38,67.93 			"/>
			<polygon class="st7" points="18.96,60.21 18.96,60.58 19.31,60.88 19.49,60.26 19.29,60 			"/>
		</g>
		<polygon class="st8" points="27.99,58.88 54.41,44.19 54.41,44.62 28.22,59.06 		"/>
		<path class="st9" d="M57.12,43.73c0,1-0.81,1.8-1.8,1.8c-1,0-1.8-0.81-1.8-1.8c0-1,0.81-1.8,1.8-1.8
			C56.32,41.93,57.12,42.73,57.12,43.73z"/>
		<g>
			<path class="st10" d="M63.71,40.73c-0.89,0.73-2.21,0.61-2.94-0.28l0,0c-0.73-0.89-0.61-2.21,0.29-2.94l6.92-5.7
				c0.89-0.74,2.21-0.61,2.94,0.28l0,0c0.73,0.89,0.61,2.21-0.29,2.94L63.71,40.73z"/>
			<path class="st10" d="M64.46,39.12c0,0.61-0.26,1.2-0.74,1.61c-0.01,0-0.01,0-0.01,0.01c-0.07,0.05-0.14,0.1-0.22,0.15l-0.1,0.06
				l-6.41,4.08l-2.31-3.49l6.46-4.11l0.11-0.07c0.97-0.62,2.26-0.33,2.88,0.65C64.35,38.35,64.46,38.73,64.46,39.12z"/>
		</g>
		<g>
			<path class="st9" d="M72,26.76c0,2.31-1.87,4.18-4.18,4.18c-2.31,0-4.18-1.87-4.18-4.18c0-2.31,1.87-4.18,4.18-4.18
				C70.13,22.58,72,24.45,72,26.76z"/>
			<path class="st11" d="M71.64,28.63c-0.1,0.02-0.19,0.03-0.29,0.03c-0.4,0.01-0.8-0.1-1.2-0.3c-0.24-0.11-0.44-0.35-0.65-0.51
				c0.39-0.24,0.49-0.77,0.27-1.23c-0.17-0.37-0.5-0.48-0.86-0.43c-0.37,0.06-0.48,0.23-0.53,0.55c-0.12-0.03-0.23-0.07-0.35-0.09
				c0.06-0.28,0.1-0.55,0.14-0.83c-0.48-0.01-0.94-0.1-1.22-0.24c0.26-0.08,0.57-0.21,0.69-0.48c-0.25-0.12-0.71-0.02-0.99-0.04
				c-0.19-0.01-0.36-0.05-0.52-0.1c-0.14-0.04-0.29-0.1-0.45-0.19c-0.37-0.19-0.76-0.51-1.08-0.88c-0.36-0.41-0.63-0.9-0.68-1.34
				c0.29,0.27,0.65,0.51,1.04,0.67c-0.21-0.34-0.18-0.74-0.06-1.1c0.36,0.46,1.5,0.24,1.96,0.1c0.83-0.28,1.85-0.25,2.45,0.34
				c0.7-0.17,1.32,0.28,1.65,0.75c0.27,0.37,0.38,0.87,0.78,1.12c-0.05,0.13-0.15,0.22-0.28,0.28
				C71.99,25.31,72.59,27.24,71.64,28.63z"/>
		</g>
		<polygon class="st8" points="71.12,50.54 72.4,60.41 76.65,70.78 72.88,72.14 67.88,61.97 64.55,50.54 		"/>
		<polygon class="st11" points="64.13,50.54 61.51,61.89 60.23,72.38 64.13,72.86 66.88,60.77 70.7,53.15 71.12,50.54 		"/>
		<path class="st12" d="M65.67,30.98l6.68-2.64l-0.63,2.08c0,0,2.12,0.59,1.75,5.82c-0.37,5.23-1.01,14.31-1.01,14.31h-8.33
			c0,0-1.28-1.28-1.23-4.54c0.05-3.26,3.68-14.36,3.68-14.36L65.67,30.98z"/>
		<path class="st2" d="M71.75,43.03c0,1.22-0.99,2.21-2.21,2.21l0,0c-1.22,0-2.21-0.99-2.21-2.21v-9.5c0-1.22,0.99-2.21,2.21-2.21
			l0,0c1.22,0,2.21,0.99,2.21,2.21V43.03z"/>
		<path class="st9" d="M70.26,51.9c0,0.99-0.81,1.8-1.8,1.8c-1,0-1.8-0.81-1.8-1.8c0-1,0.81-1.8,1.8-1.8
			C69.45,50.1,70.26,50.9,70.26,51.9z"/>
		<path class="st2" d="M71.75,43.04c0,0.09-0.01,0.18-0.02,0.27l-1.03,8.27l-4.41-0.39l1.04-8.43c0.15-1.21,1.26-2.07,2.47-1.92
			C70.93,40.98,71.75,41.94,71.75,43.04z"/>
		<polygon class="st13" points="27.87,58.78 24.87,61.67 25.37,62.17 28.51,59.31 		"/>
		<g>
			<path class="st8" d="M55.21,44.94c0.15,0.7,0.22,1.38,0.12,2.09c-0.09,0.61-0.33,1.08-0.26,1.71c0.05,0.42,0.43,0.75,0.81,0.37
				c0.41-0.41,0.3-1.15,0.28-1.69c-0.03-0.86-0.11-1.82-0.46-2.62C55.65,44.67,55.16,44.83,55.21,44.94
				c0.48,1.09,0.56,2.53,0.44,3.71c-0.01,0.07-0.02,0.14-0.04,0.21c-0.06,0.27,0,0.01,0.04,0.07c-0.23-0.39-0.08-1.05,0.03-1.42
				c0.26-0.91,0.23-1.77,0.03-2.7C55.68,44.67,55.18,44.8,55.21,44.94L55.21,44.94z"/>
		</g>
	</g>
	<path class="st14" d="M97.96,50.39c-0.64,26.34-22.18,47.49-48.68,47.49c-3.21,0-6.35-0.31-9.39-0.91L18.56,75.64h1.87l0.5-0.81
		l1.39-0.89l0.54,0.02l1.46-1.26l4.01-3.46h0.01l0.09-0.53l0.38-0.33L30,68.83l1.07,3.15l0.25,0.75v0.42l2.42,2.49l0.58-0.09v-1.27
		l-0.95-0.24l-0.8-0.67l0.2-0.3l-0.45-2.36v-0.57l-0.01-1.35l1.19-0.15l2.9-1.48l0.09,2l0.55,1.22l0.1,0.21l0.43,0.96v1.27
		l-1.47,2.07l-0.99,0.02H35.1l-0.58,0.73l0.09,0.54h1.4l1.73-1.4l0.82-0.66l0.94-0.55v-0.6L39,70.53l1.38-2.6l1.92,1.94v0.01
		l0.03,0.02l4.07,2.07l2.47,3.23l0.58,0.64l0.69-0.03l0.17-1.3l0.02-0.13l-1.04-0.29l-1.19-2.23l-0.13-1.02l-0.72-0.49l-0.59-0.05
		l-1.75-2.05l-0.82-2.57l-0.74-1.85l-1.2-1.53l1.01-1.13l-0.03-0.49l-0.6-0.01l-1.06,0.86h-0.01l-5.68-0.27l-4.56-0.63l-2.59-1.06
		l-0.24-0.16l0.11-0.1l-0.51-0.42l0.22,0.17l25.73-14.19c0.31,0.4,0.81,0.66,1.37,0.66c0.08,0.5,0.09,0.99,0.02,1.5
		c-0.09,0.61-0.33,1.08-0.26,1.71c0.05,0.42,0.43,0.75,0.81,0.37c0.41-0.41,0.3-1.15,0.28-1.69c-0.02-0.65-0.07-1.35-0.24-2
		c0.36-0.12,0.67-0.37,0.88-0.68l0.18,0.28l6.41-4.08l0.09-0.06c0.08-0.05,0.15-0.1,0.22-0.15c0-0.01,0-0.01,0.01-0.01l0.23-0.18
		c-0.59,2.24-1.04,4.33-1.05,5.46c-0.05,3.26,1.23,4.54,1.23,4.54L61.5,61.89l-1.28,10.49l0.41,0.05l-0.11,0.86
		c-0.01-0.02-0.01-0.03-0.01-0.05l-2.17-0.02c-0.92,0.04-1.76,0.33-2.05,1.46L56,74.64l-0.08,0.58l7.9,1.09l0.08-0.58l-0.24-0.03
		c0-0.02,0.01-0.04,0.01-0.06l0.07-1.95l-0.25-0.03l0.12-0.86l0.51,0.06l2.75-12.09l0.41-0.82l0.59,2.02l5,10.17l0.48-0.17
		l0.24,0.71l-0.84,0.41l-0.56,0.07c-0.88,0.15-1.69,0.55-1.84,1.7h-0.29v0.59l3.41,0.01l4.46-1.55l-0.19-0.55l-0.23,0.08
		c-0.01-0.02-0.02-0.05-0.02-0.07l-0.82-1.76l-0.23,0.09h-0.01l-0.25-0.75l0.46-0.17l-4.25-10.37l-1.28-9.87h1.34
		c0,0,0.64-9.07,1.01-14.31c0.38-5.23-1.75-5.82-1.75-5.82l0.63-2.08l-0.69,0.27c0.91-1.35,0.37-3.2-0.16-3.84
		c0-0.02-0.02-0.04-0.03-0.05c0.13-0.06,0.23-0.15,0.28-0.28c-0.34-0.21-0.46-0.58-0.65-0.91L97.96,50.39z"/>
</g>
</svg>
