<?xml version="1.0" encoding="utf-8"?>
<!-- Generator: Adobe Illustrator 27.1.0, SVG Export Plug-In . SVG Version: 6.00 Build 0)  -->
<svg version="1.1" id="Layer_1" xmlns="http://www.w3.org/2000/svg" xmlns:xlink="http://www.w3.org/1999/xlink" x="0px" y="0px"
	 viewBox="0 0 355 356" style="enable-background:new 0 0 355 356;" xml:space="preserve">
<style type="text/css">
	.st0{fill:#FF00E7;}
	.st1{fill:none;stroke:#FFFFFF;stroke-width:4;stroke-miterlimit:10;}
	.st2{fill:none;stroke:#FFFFFF;stroke-width:3;stroke-miterlimit:10;}
	.st3{fill:none;stroke:#FFFFFF;stroke-width:2;stroke-miterlimit:10;}
</style>
<g id="PELU">
	<circle id="FONDO_00000116213851399804374630000006887550393110697090_" class="st0" cx="177.86" cy="177.7" r="119.56"/>
	<g id="PERRO_00000177478368859167615530000000132957370102888071_">
		<path class="st1" d="M214.65,162.21c2.87,0.92,12.36,44.35,11.8,47.14c-1.32,6.54-4.99,10.61-5.79,11.46
			c-0.74,0.8-5.8,6.15-10.9,6.42c-9.37,0.5-20.87-11.06-19.07-27.41"/>
		<path class="st1" d="M215.61,163.18c-26.14-38.72-68.94-12.69-68.94-12.69c-3.14,2.44-6.14,5.64-7.82,10.07
			c-2.06,5.44,0.26,9.62-3.58,11.92c-5.96,3.58-13.1,0.61-20.26,3.58c-7.93,3.28-10.46,13.04-10.73,19.07
			c-0.48,10.76,17.13,24.14,45.29,27.41c-0.52,6.77-1.73,8.41-3.67,12.28c0,0-2.9,3.87,2.9,2.9"/>
		<path class="st2" d="M229.17,246.44"/>
		<path class="st1" d="M223.61,216.95c0.21,4.89,2.65,10.12,6.52,16.9c0,0,0.63,2.51-3.08,1.74"/>
		<path class="st1" d="M140.58,156.89c0-0.97-3.67-10.55-12-9.15c-8.33,1.4-8.33,1.4-8.33,1.4s3.87-5.74,10.17-5.77
			c6.29-0.03,12.1,1.9,12.1,1.9s3.39-15.56-22.27-15.28c-8.49,0.09-10.65-0.21-10.65-0.21s11.62-6.78,21.3-5.81
			c7.77,0.78,6.22,0.48,14.49,3.87c8.26,3.39,8.75,4.84,8.75,4.84s2.42-11.13-6.29-14.04c-8.71-2.9-20.81-14.04-20.81-14.04
			s14.52,4.84,22.27,4.84s12.59,1.94,12.59,1.94s13.55,9.68,14.52,19.36c0,0,4.5-6.87,2.9-16.46c-1.94-11.62-18.39-21.3-18.39-21.3
			s19.85-1.45,31.95,16.46c0,0,6.78,10.65,4.84,26.14c0,0,10.72-6.29,10.65-13.55c-0.07-7.26-2.9-11.62-4.84-15.49
			c-0.48-0.97-1.01-4.61-0.97-4.84l4.84,4.84c0,0,16.94,14.04,14.04,25.66c-2.9,11.62-3.39,13.07-3.39,13.07s6.78-1.94,9.68-4.84
			c2.9-2.9,6.78-10.65,6.78-10.65s4.91,17.91-3.87,24.2c-8.78,6.29-14.52,8.71-14.52,8.71"/>
		<path class="st3" d="M145.42,242.08"/>
		<path class="st1" d="M149.3,237.24c0,0,43.69,6.78,77.45-2.9l2.9,11.62c0,0-33.88,12.59-82.29,2.9L149.3,237.24z"/>
	</g>
	<path class="st3" d="M267.22,202.52l-7.44-8.11c0,0-1.7,5.5-2.61,8.45c1,1.24,1.64,3.48,1.88,4.3c1.42,4.96-1.45,10.13-6.41,11.55
		c-4.96,1.42-10.13-1.45-11.55-6.41c-1.42-4.96,1.45-10.13,6.41-11.55c0.78-0.22,1.34-0.69,3.46-0.42
		c0.88-2.29,4.03-10.45,4.03-10.45c-29.06-25.78-24.5-26.62-24.5-26.62l26.25,20.53l11.84-31.44c3.22,3.41-6.79,35.22-6.79,35.22
		l9.62,8.42"/>
	<path class="st3" d="M271.14,195.75c1.28-0.89,2.81-1.47,4.48-1.62c5.14-0.47,9.68,3.32,10.15,8.46c0.47,5.14-3.32,9.68-8.46,10.15
		c-5.14,0.47-9.68-3.32-10.15-8.46c-0.05-0.6-0.05-1.19,0.01-1.77"/>
</g>
</svg>
