<?xml version="1.0" encoding="utf-8"?>
<!-- Generator: Adobe Illustrator 27.1.0, SVG Export Plug-In . SVG Version: 6.00 Build 0)  -->
<svg version="1.1" id="Layer_1" xmlns="http://www.w3.org/2000/svg" xmlns:xlink="http://www.w3.org/1999/xlink" x="0px" y="0px"
	 viewBox="0 0 99 99" style="enable-background:new 0 0 99 99;" xml:space="preserve">
<style type="text/css">
	.st0{fill:#F916CE;}
	.st1{opacity:0.49;fill:#7E5557;enable-background:new    ;}
	.st2{fill:#7DC6BB;}
	.st3{fill:#D3DADB;}
	.st4{fill:#DFE6E6;}
	.st5{fill:#F8F2DD;}
	.st6{fill:#DA9851;}
	.st7{fill:#2B2823;}
	.st8{fill:#3A3730;}
	.st9{fill:#ECDFC3;}
	.st10{fill:#DA5C46;}
	.st11{fill:#CECED4;}
</style>
<g>
	<ellipse class="st0" cx="49.29" cy="49.18" rx="48.71" ry="48.71"/>
	<path class="st1" d="M97.99,49.18c0,26.9-21.8,48.7-48.7,48.7V0.47C76.19,0.47,97.99,22.28,97.99,49.18z"/>
	<g>
		<path class="st2" d="M52.62,69.62c0,1.22-0.99,2.2-2.2,2.2H28.49c-1.22,0-2.21-0.99-2.21-2.2V38.18c0-1.22,0.99-2.2,2.21-2.2
			h21.92c1.22,0,2.2,0.99,2.2,2.2v31.44H52.62z"/>
		<rect x="35.11" y="24.23" class="st3" width="8.68" height="11.74"/>
		<rect x="40.98" y="24.23" class="st4" width="2.81" height="11.74"/>
		<path class="st5" d="M48.15,53.9c0,4.8-3.89,8.69-8.69,8.69s-8.7-3.89-8.7-8.69s3.89-8.7,8.7-8.7
			C44.25,45.2,48.15,49.09,48.15,53.9z"/>
		<g>
			<path class="st6" d="M44.8,58.93c-1.28,1.26-3.03,2.04-4.97,2.04c-0.28,0-0.55-0.02-0.82-0.05l-0.13-4.53l-1.73,0.87l-2.33,0.34
				l-0.7-0.97l2.22-3.59v-0.58l0.94-1.73l0.55-0.37l-0.31-0.54l0.31-2.31l1.61,2.34v0.46l0.1-0.51l0.31-2.28l1.24,1.67l-0.02,1.09
				l-0.24,0.27l1.84,3.06L44.8,58.93z"/>
			<path class="st7" d="M38.67,52.93c0,0.18-0.15,0.32-0.33,0.32s-0.32-0.14-0.32-0.32s0.15-0.32,0.32-0.32
				C38.52,52.61,38.67,52.75,38.67,52.93z"/>
			<polygon class="st8" points="34.27,56.66 34.46,56.97 34.69,56.97 34.83,57.18 34.89,56.92 35.31,56.8 35.31,56.31 35.05,56.1 
				34.62,56.1 			"/>
			<polygon class="st9" points="37.82,47.51 37.51,49.82 37.82,50.37 39.14,50.17 39.43,50.31 39.43,49.85 			"/>
			<polygon class="st9" points="37.16,57.02 38.45,55.71 37.69,56.89 			"/>
		</g>
		<path class="st10" d="M64.22,26.01c0,0.2,0.16,0.36,0.36,0.36h7.71v0.74h-7.71c-0.2,0-0.36,0.16-0.36,0.36s0.16,0.36,0.36,0.36
			h7.71v0.74h-7.71c-0.2,0-0.36,0.16-0.36,0.36s0.16,0.36,0.36,0.36h7.71v0.74h-7.71c-0.2,0-0.36,0.16-0.36,0.36
			s0.16,0.36,0.36,0.36h7.71v0.74h-7.71c-0.2,0-0.36,0.16-0.36,0.36c0,0.2,0.16,0.36,0.36,0.36h7.71v0.73h-7.71
			c-0.2,0-0.36,0.16-0.36,0.36c0,0.19,0.16,0.36,0.36,0.36h7.71v0.73h-7.71c-0.2,0-0.36,0.16-0.36,0.36s0.16,0.36,0.36,0.36h7.71
			v0.74h-7.71c-0.2,0-0.36,0.16-0.36,0.36s0.16,0.36,0.36,0.36h7.71v0.74h-7.71c-0.2,0-0.36,0.16-0.36,0.36s0.16,0.36,0.36,0.36
			h7.71v0.74h-7.71c-0.2,0-0.36,0.16-0.36,0.36s0.16,0.36,0.36,0.36h7.71v0.74h-7.71c-0.2,0-0.36,0.16-0.36,0.36
			s0.16,0.36,0.36,0.36h7.71v0.73h-7.71c-0.2,0-0.36,0.16-0.36,0.36s0.16,0.36,0.36,0.36h7.71v0.73h-7.71
			c-0.2,0-0.36,0.16-0.36,0.36s0.16,0.36,0.36,0.36h7.71v0.73h-7.71c-0.2,0-0.36,0.16-0.36,0.36s0.16,0.36,0.36,0.36h7.71v0.77
			l-5.71,0.58c-2.32,0.36-1.86,8.8-0.75,13.88c0.5,2.22,1.94,7.6-0.11,9.68c-0.07,0.07-0.14,0.14-0.22,0.21
			c-4.11,3.68-8.56,0-8.3-4.03c0.22-3.53,1.31-7.07,1.64-10.61c0.59-5.75-0.66-10.94-1.91-16.14c-0.84-3.69-1.49-14.64,4.01-15.02
			c0.1-0.01,0.19-0.01,0.3-0.01h11.05v1.05h-7.71C64.37,25.65,64.22,25.81,64.22,26.01z"/>
		<path class="st4" d="M64.14,68.65l-0.04,0.04l-0.09,0.07c-0.7,0.62-1.41,0.95-2.06,0.95c-0.82,0-1.41-0.5-1.69-0.8
			c-0.6-0.64-0.92-1.53-0.87-2.4c0.11-1.74,0.45-3.51,0.81-5.37c0.33-1.68,0.66-3.41,0.82-5.17c0.24-2.33,0.19-4.56-0.02-6.72
			c0-0.05-0.01-0.09-0.01-0.14c0-0.02,0-0.04,0-0.06c0-0.53,0.43-0.96,0.96-0.96s0.95,0.43,0.95,0.96v0.02
			c-0.01,0.08-0.03,0.15-0.04,0.23c-0.53,3.96,0.29,9.38,0.8,11.69l0.12,0.52C64.95,66.52,64.62,68.16,64.14,68.65z"/>
	</g>
	<path class="st11" d="M97.97,50.28C97.43,75.24,78.1,95.57,53.55,97.69l-26.21-26.2c0.34,0.21,0.73,0.33,1.15,0.33h21.92
		c1.22,0,2.21-0.99,2.21-2.2V38.17c0-1.21-0.99-2.2-2.21-2.2h-6.62V24.23l12.72,12.72c0.11,1.07,0.25,2,0.41,2.68
		c1.25,5.19,2.5,10.39,1.91,16.14c-0.33,3.53-1.42,7.08-1.65,10.61c-0.25,4.03,4.2,7.71,8.31,4.03c0.08-0.07,0.15-0.14,0.22-0.21
		c2.05-2.08,0.62-7.46,0.12-9.68c-1.11-5.08-1.58-13.52,0.75-13.88l5.7-0.58v-0.78h-7.71c-0.19,0-0.35-0.16-0.35-0.35
		c0-0.2,0.16-0.37,0.35-0.37h7.71v-0.73h-7.71c-0.19,0-0.35-0.16-0.35-0.36s0.16-0.36,0.35-0.36h7.71v-0.74h-7.71
		c-0.19,0-0.35-0.16-0.35-0.36c0-0.19,0.16-0.36,0.35-0.36h7.71v-0.73h-7.71c-0.19,0-0.35-0.16-0.35-0.36s0.16-0.36,0.35-0.36h7.71
		v-0.74h-7.71c-0.19,0-0.35-0.16-0.35-0.36s0.16-0.36,0.35-0.36h7.71v-0.73h-7.71c-0.19,0-0.35-0.16-0.35-0.36s0.16-0.36,0.35-0.36
		h7.71v-0.74h-7.71c-0.19,0-0.35-0.16-0.35-0.36s0.16-0.36,0.35-0.36h7.71V35.1h-7.71c-0.19,0-0.35-0.16-0.35-0.36
		s0.16-0.37,0.35-0.37h7.71v-0.73h-7.71c-0.19,0-0.35-0.16-0.35-0.36s0.16-0.36,0.35-0.36h7.71v-0.73h-7.71
		c-0.19,0-0.35-0.17-0.35-0.37c0-0.2,0.16-0.35,0.35-0.35h7.71v-0.74h-7.71c-0.19,0-0.35-0.16-0.35-0.36s0.16-0.36,0.35-0.36h7.71
		v-0.74h-7.71c-0.19,0-0.35-0.16-0.35-0.36s0.16-0.35,0.35-0.35h7.71v-0.74h-7.71c-0.19,0-0.35-0.16-0.35-0.36s0.16-0.36,0.35-0.36
		h7.71v-0.74h-7.71c-0.19,0-0.35-0.16-0.35-0.36c0-0.19,0.16-0.35,0.35-0.35h7.71v-1.06L97.97,50.28z"/>
</g>
</svg>
