<?xml version="1.0" encoding="utf-8"?>
<!-- Generator: Adobe Illustrator 27.1.0, SVG Export Plug-In . SVG Version: 6.00 Build 0)  -->
<svg version="1.1" xmlns="http://www.w3.org/2000/svg" xmlns:xlink="http://www.w3.org/1999/xlink" x="0px" y="0px"
	 viewBox="0 0 88 81" style="enable-background:new 0 0 88 81;" xml:space="preserve">
<style type="text/css">
	.st0{fill:#FF00E7;}
</style>
<g id="Layer_1">
</g>
<g id="Layer_2">
	<path class="st0" d="M87.6,48.66l-22-24.33L43.6,0l-22,24.33l-22,24.33h12.76v29.2h7.7l1.46-31.23c0,0-12.67-11.54,4.3-12.9
		c0,0,1.81-18.11,16.75-6.56c0,0,16.3-15.16,17.2,4.75c0,0,17.2-3.17,7.92,13.35L66.9,77.18h8.15V48.66H87.6z"/>
	<path class="st0" d="M40.59,43.48c1.49-2.36,4.25-5.14,7.35-0.36c0.66,1.02,1.8,1.67,3.02,1.62c1.13-0.05,2.54,0.52,3.47,3.15
		c1.17,3.3-0.41,5.32-1.58,6.28c-0.72,0.6-1.65,0.9-2.57,0.77c-0.37-0.05-0.76-0.17-1.09-0.39c-0.86-0.57-1.92-0.72-2.89-0.4
		c-1.19,0.38-2.7,0.64-4.01,0.13c-0.86-0.33-1.82-0.33-2.64,0.1c-1.79,0.93-4.76,1.64-5.61-3.26c-0.96-5.57,1.39-6.3,3.29-6.06
		C38.62,45.23,39.89,44.59,40.59,43.48z"/>
	<path class="st0" d="M29.65,38.27c1.37,1.17,1.26,3.55-0.25,5.31c-1.51,1.76-3.84,2.24-5.21,1.07c-1.37-1.17-2.32-4.46-0.81-6.22
		C24.89,36.66,28.28,37.09,29.65,38.27z"/>
	<path class="st0" d="M40.18,31.33c1.01,1.81-0.27,3.58-2.08,4.59s-4.13,0.89-5.14-0.92c-1.01-1.81-0.32-4.96,1.49-5.97
		C36.26,28.02,39.18,29.52,40.18,31.33z"/>
	<path class="st0" d="M54.69,33.7c-0.57,2.99-3.27,3.42-5.88,1.86c-1.18-0.71-1.81-2.11-1.44-3.44c0.72-2.59,3.86-4.73,5.93-2.46
		C54.13,30.57,54.93,32.48,54.69,33.7z"/>
	<path class="st0" d="M65.21,42.12c-0.92,1.85-3.17,2.61-5.02,1.69c-1.85-0.92-2.61-3.17-1.69-5.02c0.92-1.85,3.44-2.81,5.29-1.89
		S66.14,40.26,65.21,42.12z"/>
	<path class="st0" d="M87.6,48.66l-22-24.33L43.6,0l-22,24.33l-22,24.33h12.76v29.2h7.7l1.46-31.23c0,0-12.67-11.54,4.3-12.9
		c0,0,1.81-18.11,16.75-6.56c0,0,16.3-15.16,17.2,4.75c0,0,17.2-3.17,7.92,13.35L66.9,77.18h8.15V48.66H87.6z"/>
	<path class="st0" d="M40.59,43.48c1.49-2.36,4.25-5.14,7.35-0.36c0.66,1.02,1.8,1.67,3.02,1.62c1.13-0.05,2.54,0.52,3.47,3.15
		c1.17,3.3-0.41,5.32-1.58,6.28c-0.72,0.6-1.65,0.9-2.57,0.77c-0.37-0.05-0.76-0.17-1.09-0.39c-0.86-0.57-1.92-0.72-2.89-0.4
		c-1.19,0.38-2.7,0.64-4.01,0.13c-0.86-0.33-1.82-0.33-2.64,0.1c-1.79,0.93-4.76,1.64-5.61-3.26c-0.96-5.57,1.39-6.3,3.29-6.06
		C38.62,45.23,39.89,44.59,40.59,43.48z"/>
	<path class="st0" d="M29.65,38.27c1.37,1.17,1.26,3.55-0.25,5.31c-1.51,1.76-3.84,2.24-5.21,1.07c-1.37-1.17-2.32-4.46-0.81-6.22
		C24.89,36.66,28.28,37.09,29.65,38.27z"/>
	<path class="st0" d="M40.18,31.33c1.01,1.81-0.27,3.58-2.08,4.59s-4.13,0.89-5.14-0.92c-1.01-1.81-0.32-4.96,1.49-5.97
		C36.26,28.02,39.18,29.52,40.18,31.33z"/>
	<path class="st0" d="M54.69,33.7c-0.57,2.99-3.27,3.42-5.88,1.86c-1.18-0.71-1.81-2.11-1.44-3.44c0.72-2.59,3.86-4.73,5.93-2.46
		C54.13,30.57,54.93,32.48,54.69,33.7z"/>
	<path class="st0" d="M65.21,42.12c-0.92,1.85-3.17,2.61-5.02,1.69c-1.85-0.92-2.61-3.17-1.69-5.02c0.92-1.85,3.44-2.81,5.29-1.89
		S66.14,40.26,65.21,42.12z"/>
</g>
</svg>
