<?xml version="1.0" encoding="utf-8"?>
<!-- Generator: Adobe Illustrator 27.1.0, SVG Export Plug-In . SVG Version: 6.00 Build 0)  -->
<svg version="1.1" id="Layer_1" xmlns="http://www.w3.org/2000/svg" xmlns:xlink="http://www.w3.org/1999/xlink" x="0px" y="0px"
	 viewBox="0 0 388 356" style="enable-background:new 0 0 388 356;" xml:space="preserve">
<style type="text/css">
	.st0{fill:#FF00E7;}
</style>
<path class="st0" d="M388.4,215l-97.2-107.5L194,0L96.8,107.5L-0.4,215h56.36v129h34l6.44-138c0,0-56-51,19-57c0,0,8-80,74-29
	c0,0,72-67,76,21c0,0,76-14,35,59l-3.44,141h36V215H388.4z"/>
<path class="st0" d="M180.72,192.12c6.58-10.41,18.79-22.69,32.47-1.57c2.93,4.52,7.95,7.4,13.33,7.16
	c4.99-0.22,11.22,2.3,15.32,13.93c5.15,14.59-1.82,23.49-6.99,27.77c-3.18,2.63-7.28,3.97-11.37,3.39
	c-1.63-0.23-3.34-0.74-4.83-1.72c-3.78-2.51-8.46-3.16-12.78-1.77c-5.24,1.68-11.94,2.81-17.73,0.56c-3.8-1.48-8.04-1.46-11.66,0.42
	c-7.91,4.11-21.04,7.23-24.77-14.4c-4.24-24.61,6.15-27.81,14.55-26.75C172.01,199.85,177.62,197.02,180.72,192.12z"/>
<path class="st0" d="M132.38,169.06c6.05,5.17,5.55,15.68-1.11,23.46c-6.66,7.78-16.96,9.9-23.01,4.72s-10.25-19.69-3.59-27.48
	C111.34,161.99,126.33,163.89,132.38,169.06z"/>
<path class="st0" d="M178.91,138.4c4.44,7.99-1.21,15.82-9.2,20.26s-18.27,3.94-22.71-4.05c-4.44-7.99-1.43-21.93,6.56-26.37
	C161.56,123.79,174.47,130.41,178.91,138.4z"/>
<path class="st0" d="M243.01,148.89c-2.53,13.19-14.44,15.11-25.97,8.22c-5.22-3.12-8.01-9.34-6.38-15.21
	c3.17-11.42,17.05-20.88,26.19-10.86C240.53,135.08,244.04,143.52,243.01,148.89z"/>
<path class="st0" d="M289.5,186.08c-4.07,8.19-14.01,11.53-22.2,7.46c-8.19-4.07-11.53-14.01-7.46-22.2
	c4.07-8.19,15.19-12.42,23.38-8.35C291.41,167.06,293.57,177.89,289.5,186.08z"/>
</svg>
