<?xml version="1.0" encoding="utf-8"?>
<!-- Generator: Adobe Illustrator 27.1.0, SVG Export Plug-In . SVG Version: 6.00 Build 0)  -->
<svg version="1.1" id="Layer_1" xmlns="http://www.w3.org/2000/svg" xmlns:xlink="http://www.w3.org/1999/xlink" x="0px" y="0px"
	 viewBox="0 0 385 272" style="enable-background:new 0 0 385 272;" xml:space="preserve">
<style type="text/css">
	.st0{fill:none;}
	.st1{fill:#E9078A;}
	.st2{fill:#FFFFFF;}
</style>
<rect x="169" y="29" class="st0" width="30" height="12"/>
<g>
	<g id="Logos_x2F_Main-Logo_00000111880790941497590900000014382831015796969896_">
		<g id="Eukanuba-logo_00000058553835543373346540000017677372360186797502_">
			<polygon id="Path_00000140703459426392641030000016762908566716742026_" class="st1" points="38.02,165.93 57.34,133.36 
				38.02,100.78 346.98,100.78 346.98,165.93 			"/>
			<path id="Shape_00000079476477126409525630000011206986863356825003_" class="st2" d="M281.6,144.87c4.66,0,6.4-3.36,6.4-6.17
				c-4.65,0-10.22,0.94-10.22,3.71C277.79,144.01,279.14,144.87,281.6,144.87 M288.01,145.38h-0.12c-0.98,1.34-3.11,2.85-8.03,2.85
				c-5.18,0-9.06-2.06-9.06-5.39c0-6.82,12.94-6.86,17.21-6.95v-2.03c0-2.02-0.77-3.76-4.33-3.76c-3.92,0-4.72,1.77-4.72,3.16h-6.99
				c0-3.92,3.88-6.51,11.71-6.51c7.64,0,11.21,2.2,11.21,6.37v14.63h-6.88V145.38z M256.75,144.87c4.6,0,5.37-4.01,5.37-7.37
				c0-3.71-0.56-7.69-5.37-7.69c-4.33,0-5.69,4.23-5.69,7.69C251.06,142.63,252.22,144.87,256.75,144.87 M251.05,129.69h0.12
				c0.98-1.03,3.23-2.93,7.97-2.93c7.38,0,10.61,4.18,10.61,10.74c0,5.73-2.98,10.73-13.01,10.73c-8.09,0-12.89-3.06-12.89-9.18V118
				h7.2V129.69z M233.02,143.95h-0.13c-0.97,1.55-3.49,4.31-9.12,4.31c-4.54,0-8.35-2.06-8.35-6.77v-14.26h7.19v11.73
				c0,4.19,0.64,4.79,3.17,4.79c4.79,0,7.24-4.36,7.24-7.64v-8.89h7.18v20.54h-7.18V143.95z M186.44,127.23h7.18v3.85h0.12
				c0.98-1.56,3.43-4.32,9.13-4.32c4.53,0,8.34,2.07,8.34,6.76v14.24h-7.19v-11.74c0-4.18-0.64-4.78-3.16-4.78
				c-4.85,0-7.25,4.4-7.25,7.64v8.88h-7.18V127.23z M169.1,144.87c4.66,0,6.41-3.36,6.41-6.17c-4.66,0-10.23,0.94-10.23,3.71
				C165.28,144.01,166.64,144.87,169.1,144.87 M175.51,145.38h-0.14c-0.96,1.34-3.11,2.85-8.02,2.85c-5.18,0-9.06-2.06-9.06-5.39
				c0-6.82,12.94-6.86,17.22-6.95v-2.03c0-2.02-0.78-3.76-4.34-3.76c-3.92,0-4.72,1.77-4.72,3.16h-6.99c0-3.92,3.88-6.51,11.71-6.51
				c7.64,0,11.21,2.2,11.21,6.37v14.63h-6.87V145.38z M133.12,118h7.18v17.08l9.97-7.85h8.61l-11.4,8.86l12.42,11.65h-8.61
				l-10.87-10.34h-0.13v10.35h-7.18V118z M121.74,143.95h-0.13c-0.95,1.55-3.48,4.31-9.11,4.31c-4.54,0-8.35-2.06-8.35-6.77v-14.26
				h7.19v11.73c0,4.19,0.64,4.79,3.17,4.79c4.78,0,7.24-4.36,7.24-7.64v-8.89h7.19v20.54h-7.19V143.95z M75.5,118h26.07v3.84h-18.5
				v8.58h17.53v3.85H83.07v9.68h19.02v3.84H75.5V118z"/>
			<polygon id="Path_00000127728802584179042110000003990961357556294835_" class="st2" points="298.72,128.01 297.4,128.01 
				297.4,127.33 300.79,127.33 300.79,128.01 299.46,128.01 299.46,131.55 298.72,131.55 			"/>
			<polygon id="Path_00000025443054346917580810000017188845834783790525_" class="st2" points="301.87,127.33 302.65,127.33 
				303.93,129.33 305.2,127.33 305.98,127.33 305.98,131.55 305.24,131.55 305.24,128.52 303.93,130.51 303.9,130.51 302.59,128.54 
				302.59,131.55 301.87,131.55 			"/>
		</g>
	</g>
</g>
</svg>
