<?xml version="1.0" encoding="utf-8"?>
<!-- Generator: Adobe Illustrator 27.8.1, SVG Export Plug-In . SVG Version: 6.00 Build 0)  -->
<svg version="1.1" id="Capa_1" xmlns="http://www.w3.org/2000/svg" xmlns:xlink="http://www.w3.org/1999/xlink" x="0px" y="0px"
	 viewBox="0 0 665.8 229" style="enable-background:new 0 0 665.8 229;" xml:space="preserve">
<style type="text/css">
	.st0{fill:#472F92;}
</style>
<g>
	<g>
		<g>
			<g>
				<path class="st0" d="M0,228.5v-25.3h3.6v22.1h12.2v3.3H0z"/>
				<path class="st0" d="M27,228.5l11.1-25.3h2.7L52,228.5h-3.8l-3.3-7.5H34l-3.3,7.5H27z M35.4,217.8h8l-4-9.1L35.4,217.8z"/>
				<path class="st0" d="M86.7,228.5v-25.3h3.2l16.9,19.7v-19.7h3.7v25.3h-3.3l-16.9-19.7v19.7H86.7z"/>
				<path class="st0" d="M127.4,203.2h3.7v14.5c0,1.6,0.1,2.8,0.3,3.4c0.2,0.7,0.5,1.2,0.9,1.7c0.8,0.9,1.7,1.5,2.7,2
					c1,0.4,2.2,0.6,3.5,0.6c2.2,0,4-0.6,5.4-1.7c1.3-1.1,2-2.6,2-4.5v-16.2h3.7v16.3c0,2.8-1,5.1-3.1,6.9c-2.1,1.8-4.7,2.6-8,2.6
					c-1.9,0-3.7-0.3-5.3-1c-1.6-0.7-2.9-1.7-4-3c-0.7-0.8-1.1-1.7-1.4-2.6c-0.3-1-0.4-2.4-0.4-4.4V203.2z"/>
				<path class="st0" d="M173.5,228.5v-22h-9.4v-3.3h22.5v3.3h-9.4v22H173.5z"/>
				<path class="st0" d="M201.2,228.5v-25.3h7.5c2.6,0,4.6,0.6,6,1.8c1.4,1.2,2.1,2.9,2.1,5.1c0,1.7-0.4,3-1.2,4
					c-0.8,1-2,1.8-3.6,2.3c0.4,0.2,0.8,0.5,1.2,0.9c0.4,0.4,0.9,1,1.5,1.9l6.2,9.2h-4.4l-4.4-6.6c-1.3-2-2.4-3.3-3.2-3.8
					c-0.8-0.6-1.8-0.8-2.9-0.8h-1.1v11.3H201.2z M204.9,214.2h3c1.7,0,3-0.3,3.8-1c0.9-0.7,1.3-1.7,1.3-3c0-1.4-0.4-2.4-1.2-3
					c-0.8-0.6-2.1-1-3.9-1h-3V214.2z"/>
				<path class="st0" d="M234.2,228.5v-25.3h3.7v25.3H234.2z"/>
				<path class="st0" d="M277,222.5v4.1c-1.5,0.8-3,1.4-4.6,1.8c-1.6,0.4-3.1,0.6-4.6,0.6c-1.5,0-2.9-0.2-4.2-0.6
					c-1.3-0.4-2.6-1-3.8-1.7c-1.9-1.2-3.4-2.8-4.4-4.7c-1.1-1.9-1.6-4-1.6-6.2c0-1.7,0.3-3.4,1.1-5c0.7-1.6,1.7-3,3-4.2
					c1.4-1.3,2.9-2.2,4.6-2.9c1.7-0.6,3.6-1,5.7-1c1.4,0,2.9,0.2,4.3,0.5c1.4,0.3,2.9,0.8,4.5,1.5v3.9c-1.6-0.9-3.1-1.5-4.6-1.9
					c-1.4-0.4-2.8-0.6-4.2-0.6c-3,0-5.5,0.9-7.4,2.8c-2,1.8-2.9,4.2-2.9,6.9c0,2.7,1,5,2.9,6.9c1.9,1.8,4.3,2.8,7.2,2.8
					c1.5,0,3-0.2,4.5-0.7C273.9,224.3,275.5,223.5,277,222.5z"/>
				<path class="st0" d="M293,228.5v-25.3h3.7v25.3H293z"/>
				<path class="st0" d="M312.6,215.8c0-1.7,0.4-3.3,1-4.9c0.7-1.6,1.7-3,3-4.2c1.3-1.3,2.8-2.2,4.4-2.8c1.7-0.7,3.4-1,5.2-1
					c1.9,0,3.6,0.3,5.3,1c1.7,0.7,3.1,1.6,4.4,2.8c1.3,1.3,2.3,2.7,3,4.3c0.7,1.6,1,3.3,1,5.1c0,1.7-0.3,3.4-1,5
					c-0.7,1.6-1.7,3-2.9,4.2c-1.3,1.3-2.8,2.2-4.5,2.9c-1.7,0.6-3.4,1-5.3,1c-1.8,0-3.6-0.3-5.2-1c-1.7-0.7-3.1-1.6-4.4-2.8
					c-1.3-1.3-2.3-2.7-3-4.3C312.9,219.3,312.6,217.6,312.6,215.8z M316.5,215.9c0,1.3,0.2,2.5,0.7,3.7c0.5,1.2,1.2,2.2,2.1,3.1
					c0.9,0.9,1.9,1.6,3.2,2.1c1.2,0.5,2.5,0.7,3.8,0.7c1.3,0,2.6-0.2,3.8-0.7c1.2-0.5,2.2-1.2,3.2-2.1c0.9-0.9,1.6-1.9,2.1-3.1
					c0.5-1.2,0.7-2.4,0.7-3.7c0-1.3-0.2-2.5-0.7-3.7c-0.5-1.2-1.2-2.2-2.2-3.2c-0.9-0.9-2-1.6-3.2-2.1c-1.2-0.5-2.4-0.7-3.8-0.7
					c-1.3,0-2.5,0.3-3.7,0.7c-1.2,0.5-2.3,1.2-3.2,2.1c-0.9,0.9-1.6,1.9-2.1,3.1C316.7,213.3,316.5,214.6,316.5,215.9z M323.8,200.8
					l3.8-6.3h3.3l-5.2,6.3H323.8z"/>
				<path class="st0" d="M355.7,228.5v-25.3h3.2l16.9,19.7v-19.7h3.7v25.3h-3.3l-16.9-19.7v19.7H355.7z"/>
				<path class="st0" d="M418.1,228.5v-25.3h2.2v25.3H418.1z"/>
				<path class="st0" d="M438.1,228.5v-25.3h2.2l18.8,22.1v-22.1h2.1v25.3h-1.9l-19-22.4v22.4H438.1z"/>
				<path class="st0" d="M487.7,203.2c2,0,3.6,0.2,5,0.6c1.4,0.4,2.6,1,3.7,1.8c1.6,1.2,2.9,2.7,3.8,4.5c0.9,1.8,1.4,3.8,1.4,5.9
					c0,2.1-0.5,4-1.4,5.8c-0.9,1.8-2.2,3.3-3.8,4.5c-1.1,0.8-2.4,1.4-3.8,1.8c-1.4,0.4-3,0.6-5,0.6h-8.9v-25.3H487.7z M487.2,205
					H481v21.7h6.2c1.7,0,3.2-0.1,4.4-0.4c1.2-0.3,2.3-0.7,3.1-1.3c1.4-0.9,2.6-2.2,3.4-3.8c0.8-1.6,1.2-3.4,1.2-5.3
					c0-1.9-0.4-3.7-1.2-5.3c-0.8-1.6-1.9-2.9-3.4-3.8c-0.9-0.6-1.9-1-3.1-1.3C490.3,205.2,488.9,205,487.2,205z"/>
				<path class="st0" d="M518,228.5v-25.3h2.2v25.3H518z"/>
				<path class="st0" d="M559.4,226.6c-1.5,0.8-3,1.4-4.5,1.8c-1.5,0.4-3,0.6-4.4,0.6c-1.5,0-2.9-0.2-4.2-0.6
					c-1.3-0.4-2.6-1-3.7-1.7c-1.9-1.2-3.3-2.8-4.4-4.7c-1-1.9-1.6-4-1.6-6.3c0-1.7,0.3-3.4,1-5c0.7-1.6,1.7-3,2.9-4.2
					c1.3-1.3,2.8-2.2,4.5-2.9c1.7-0.7,3.5-1,5.4-1c1.4,0,2.9,0.2,4.3,0.6c1.5,0.4,3,1,4.6,1.8v2.1c-1.7-0.9-3.3-1.6-4.8-2
					c-1.5-0.4-2.9-0.6-4.2-0.6c-1.2,0-2.3,0.1-3.4,0.5c-1.1,0.3-2.1,0.8-3.1,1.4c-1.6,1.1-2.8,2.4-3.7,4c-0.9,1.6-1.3,3.4-1.3,5.4
					c0,1.5,0.3,2.9,0.9,4.3c0.6,1.4,1.4,2.6,2.4,3.7c1,1.1,2.3,1.9,3.7,2.4c1.4,0.6,3,0.9,4.6,0.9c1.3,0,2.7-0.2,4.2-0.6
					c1.5-0.4,3.1-1.1,4.8-2V226.6z"/>
				<path class="st0" d="M571.2,228.5l11.2-25.6h0.8l11.2,25.6h-2.2l-3.8-8.9h-11.3l-3.8,8.9H571.2z M577.9,218h9.8l-4.9-11.5
					L577.9,218z"/>
				<path class="st0" d="M617.1,203.2c2,0,3.6,0.2,5,0.6c1.4,0.4,2.6,1,3.7,1.8c1.6,1.2,2.9,2.7,3.8,4.5c0.9,1.8,1.4,3.8,1.4,5.9
					c0,2.1-0.5,4-1.4,5.8c-0.9,1.8-2.2,3.3-3.8,4.5c-1.1,0.8-2.4,1.4-3.7,1.8c-1.4,0.4-3,0.6-5,0.6h-8.9v-25.3H617.1z M616.5,205
					h-6.2v21.7h6.2c1.7,0,3.1-0.1,4.4-0.4c1.2-0.3,2.3-0.7,3.1-1.3c1.4-0.9,2.6-2.2,3.4-3.8c0.8-1.6,1.2-3.4,1.2-5.3
					c0-1.9-0.4-3.7-1.2-5.3c-0.8-1.6-1.9-2.9-3.4-3.8c-0.9-0.6-1.9-1-3.1-1.3C619.7,205.2,618.2,205,616.5,205z"/>
				<path class="st0" d="M642.6,228.5l11.2-25.6h0.8l11.2,25.6h-2.2l-3.8-8.9h-11.3l-3.8,8.9H642.6z M649.3,218h9.8l-4.9-11.5
					L649.3,218z"/>
			</g>
		</g>
	</g>
	<path class="st0" d="M248.9,106.4c-10.4,3.7-22.1,7.6-22.1,20.5c0,8.5,6.3,15.9,15.9,15.9c6,0,11.9-2.1,17.5-6.6
		c1.2,4.5,4.2,6.6,9.9,6.6c4.1,0,6.5-1,12.5-5v-7.8c-3,2.2-5.5,3.5-6.8,3.5c-1.6,0-2.5-0.8-2.5-3.3V96.7c0-14.8-10.4-21.4-23.6-21.4
		c-9.4,0-16.5,2.9-21.6,8.8v14c6.2-7.3,13.5-10.7,20.7-10.7c7.8,0,11.7,3.4,11.7,11.4v3.5L248.9,106.4z M260.4,128.3
		c-3.5,3.4-7.3,5.4-11.3,5.4c-5.5,0-9.3-3.8-9.3-9.2c0-7.6,9.6-11.4,20.6-15.1V128.3z M152.5,141.5h12.9v-65h-12.9V141.5z
		 M186.2,122.5c0,11.7,7.1,20.3,21.1,20.3c4.2,0,11.1-1.8,15.6-4.3v-12c-5.3,3.2-10,4.8-14.7,4.8c-3.8,0-9.2-2.2-9.2-9.9V88.3h20.5
		V76.6H199V63.2l-24.2,23.6v1.5h11.4V122.5z M307,42.9h-12.9v98.6H307V42.9z M158.8,68.7c3.5,0,6.4-2.9,6.4-6.5
		c0-3.5-2.9-6.5-6.4-6.5c-3.6,0-6.6,2.9-6.6,6.5C152.2,65.8,155.1,68.7,158.8,68.7z M107.3,29.3L89.9,69.3L59.3,0H45.7l37.6,84.7
		l-32,74.1h514.6l56-129.6H107.3z M313.7,150H64.7c2.2-5.1,12.8-29.6,23.5-54.3l20.9,47.1h4.2L141,78.6h-13.4l-16.5,38.7L94.8,80.3
		c9.3-21.6,17.4-40.2,18.3-42.3h249.1L313.7,150z M417.3,139.2c-4.3,1.9-12.4,3.6-19.1,3.6c-19.2,0-32.6-13.3-32.6-32.1
		c0-21.2,12.2-34.6,31.7-34.6c7.4,0,12.4,1.8,18.6,4.4v13.6c-7.3-4.9-12.1-6.3-17.7-6.3c-11.5,0-19.6,8.7-19.6,21.7
		c0,13.3,8.6,21.2,21.7,21.2c5.4,0,10.6-1.3,17-4.2V139.2z M481.1,137.8c-5.9,4-8.2,5-12.3,5c-5.6,0-8.6-1.9-9.7-6.5
		c-5.5,4.4-11.4,6.5-17.3,6.5c-9.3,0-15.6-7.4-15.6-15.6c0-12.8,11.5-16.6,21.8-20.3l11.2-4.1v-3.4c0-8-3.8-11.3-11.5-11.3
		c-7,0-14.2,3.3-20.3,10.6V84.8c5.1-5.8,12-8.7,21.3-8.7c12.9,0,23.2,6.6,23.2,21.2v33c0,2.4,1,3.3,2.5,3.3c1.3,0,3.8-1.3,6.7-3.4
		V137.8z M546.1,141.5h-12.7v-39.7c0-9.4-4.9-15.6-12.6-15.6c-5.6,0-10,2.5-16,9.3v46h-12.7V77.3h12.7v8.5h0.3
		c4.8-6.2,11.9-9.7,19.2-9.7c12.1,0,21.8,8.3,21.8,25.8V141.5z M438.9,124.9c0,5.2,3.8,9,9.1,9c4,0,7.8-2,11.1-5.2v-18.7
		C448.3,113.5,438.9,117.3,438.9,124.9z"/>
</g>
</svg>
