<?xml version="1.0" encoding="UTF-8"?>
<svg width="552px" height="117px" viewBox="0 0 552 117" version="1.1" xmlns="http://www.w3.org/2000/svg" xmlns:xlink="http://www.w3.org/1999/xlink">
    <title>Eukanuba logo - primary</title>
    <g id="Logos/Main-Logo" stroke="none" stroke-width="1" fill="none" fill-rule="evenodd">
        <g id="Eukanuba-logo" fill-rule="nonzero">
            <polygon id="Path" fill="#E9078A" points="0 116.22 34.45 58.11 0 0 551.11 0 551.11 116.22"></polygon>
            <path d="M434.5,78.65 C442.81,78.65 445.92,72.65 445.92,67.65 C437.62,67.65 427.69,69.33 427.69,74.27 C427.69,77.11 430.11,78.64 434.5,78.64 M445.92,79.56 L445.7,79.56 C443.96,81.95 440.15,84.64 431.38,84.64 C422.14,84.64 415.22,80.96 415.22,75.03 C415.22,62.87 438.31,62.79 445.92,62.63 L445.92,59 C445.92,55.39 444.54,52.3 438.19,52.3 C431.19,52.3 429.77,55.45 429.77,57.93 L417.31,57.93 C417.31,50.93 424.23,46.31 438.19,46.31 C451.82,46.31 458.19,50.23 458.19,57.68 L458.19,83.78 L445.92,83.78 L445.92,79.56 Z M390.17,78.64 C398.37,78.64 399.75,71.48 399.75,65.5 C399.75,58.88 398.75,51.78 390.17,51.78 C382.44,51.78 380.02,59.33 380.02,65.5 C380.02,74.65 382.09,78.64 390.17,78.64 M380,51.57 L380.22,51.57 C381.96,49.73 385.99,46.35 394.43,46.35 C407.59,46.35 413.35,53.8 413.35,65.51 C413.35,75.73 408.04,84.65 390.15,84.65 C375.72,84.65 367.15,79.2 367.15,68.27 L367.15,30.72 L380,30.72 L380,51.57 Z M347.83,77 L347.6,77 C345.87,79.76 341.38,84.68 331.33,84.68 C323.24,84.68 316.43,81 316.43,72.61 L316.43,47.18 L329.25,47.18 L329.25,68.11 C329.25,75.58 330.4,76.65 334.91,76.65 C343.45,76.65 347.83,68.88 347.83,63.03 L347.83,47.18 L360.64,47.18 L360.64,83.82 L347.83,83.82 L347.83,77 Z M264.75,47.18 L277.56,47.18 L277.56,54.05 L277.78,54.05 C279.53,51.26 283.9,46.35 294.07,46.35 C302.15,46.35 308.95,50.05 308.95,58.41 L308.95,83.82 L296.13,83.82 L296.13,62.88 C296.13,55.43 294.99,54.35 290.49,54.35 C281.83,54.35 277.56,62.2 277.56,67.98 L277.56,83.82 L264.75,83.82 L264.75,47.18 Z M233.82,78.65 C242.13,78.65 245.25,72.65 245.25,67.65 C236.93,67.65 227,69.33 227,74.27 C227,77.11 229.43,78.64 233.82,78.64 M245.25,79.56 L245,79.56 C243.28,81.95 239.46,84.64 230.69,84.64 C221.45,84.64 214.53,80.96 214.53,75.03 C214.53,62.87 237.62,62.79 245.24,62.63 L245.24,59 C245.24,55.39 243.84,52.3 237.49,52.3 C230.49,52.3 229.07,55.45 229.07,57.93 L216.61,57.93 C216.61,50.93 223.54,46.31 237.5,46.31 C251.13,46.31 257.5,50.23 257.5,57.68 L257.5,83.78 L245.25,83.78 L245.25,79.56 Z M169.64,30.72 L182.45,30.72 L182.45,61.19 L200.23,47.19 L215.59,47.19 L195.26,63 L217.42,83.79 L202.07,83.79 L182.68,65.35 L182.45,65.35 L182.45,83.82 L169.64,83.82 L169.64,30.72 Z M149.34,77 L149.1,77 C147.4,79.76 142.9,84.68 132.85,84.68 C124.76,84.68 117.95,81 117.95,72.61 L117.95,47.18 L130.77,47.18 L130.77,68.11 C130.77,75.58 131.92,76.65 136.42,76.65 C144.95,76.65 149.34,68.88 149.34,63.03 L149.34,47.18 L162.16,47.18 L162.16,83.82 L149.34,83.82 L149.34,77 Z M66.84,30.72 L113.35,30.72 L113.35,37.57 L80.35,37.57 L80.35,52.88 L111.62,52.88 L111.62,59.74 L80.36,59.74 L80.36,77 L114.28,77 L114.28,83.85 L66.84,83.85 L66.84,30.72 Z" id="Shape" fill="#FFFFFF"></path>
            <polygon id="Path" fill="#FFFFFF" points="465.04 48.58 462.67 48.58 462.67 47.36 468.73 47.36 468.73 48.58 466.36 48.58 466.36 54.89 465.04 54.89"></polygon>
            <polygon id="Path" fill="#FFFFFF" points="470.65 47.36 472.05 47.36 474.32 50.92 476.59 47.36 477.98 47.36 477.98 54.89 476.67 54.89 476.67 49.49 474.32 53.04 474.27 53.04 471.94 49.51 471.94 54.89 470.65 54.89"></polygon>
        </g>
    </g>
</svg>