<?xml version="1.0" encoding="utf-8"?>
<!-- Generator: Adobe Illustrator 27.1.0, SVG Export Plug-In . SVG Version: 6.00 Build 0)  -->
<svg version="1.1" id="Layer_1" xmlns="http://www.w3.org/2000/svg" xmlns:xlink="http://www.w3.org/1999/xlink" x="0px" y="0px"
	 viewBox="0 0 385 272" style="enable-background:new 0 0 385 272;" xml:space="preserve">
<style type="text/css">
	.st0{fill:none;}
	.st1{fill-rule:evenodd;clip-rule:evenodd;}
	.st2{fill-rule:evenodd;clip-rule:evenodd;fill:#FFFFFF;}
	.st3{fill-rule:evenodd;clip-rule:evenodd;fill:#FF0001;}
</style>
<rect x="169" y="29" class="st0" width="30" height="12"/>
<g>
	<g>
		<path d="M41,134.85h17.35c5.33,0,9.01,0.28,11.03,0.86c2.54,0.68,4.62,1.84,6.27,3.5c1.66,1.64,2.47,3.74,2.47,6.28
			c0,2.17-0.62,4.04-1.89,5.62c-1.5,1.9-3.34,3.25-5.5,4.03c-2.16,0.8-5.55,1.2-10.19,1.2h-8.13v9.21c0,0,0.23,2.32,0.42,2.69
			c0.26,0.51,0.6,0.87,1.05,1.07c0.44,0.21,1.34,0.31,2.69,0.46h1.21v2.01H41v-2.01h1.04c1.46-0.15,2.46-0.25,2.98-0.46
			c0.52-0.2,0.91-0.52,1.15-0.95c0.24-0.44,0.19-2.46,0.19-2.46v-25.44c0,0,0.05-1.97-0.17-2.36c-0.21-0.4-0.58-0.7-1.1-0.88
			c-0.52-0.19-1.54-0.28-3.06-0.35H41v-2.21V134.85z M52.41,137.54v15.44h6.74c3.4,0,5.79-0.25,7.15-0.76
			c1.37-0.5,2.5-1.39,3.4-2.65c0.9-1.26,1.35-2.73,1.35-4.42c0-1.85-0.52-3.39-1.56-4.63c-1.05-1.24-2.47-2.08-4.27-2.52
			c-1.25-0.3-3.7-0.45-7.33-0.45L52.41,137.54L52.41,137.54z"/>
		<path d="M83.99,140.89h18.61c3.54,0,6.21,0.32,8.03,0.94c1.81,0.62,3.19,1.53,4.17,2.7c0.97,1.18,1.46,2.55,1.46,4.1
			c0,1.6-0.47,3.02-1.42,4.26c-0.94,1.24-2.31,2.22-4.1,2.93s-1.29,1.08-4.24,1.12c6.83,7.11,11.19,14.06,23.21,18.04
			c0,0.93-7.77,0.15-9.2-0.41c-8.56-3.33-10.8-6.98-20.42-17.36l-6.71-0.27v9.47c0,1.05,0.03,1.72,0.12,1.97
			c0.19,0.5,0.49,0.86,0.92,1.06c0.42,0.2,1.24,0.31,2.47,0.31h0.52v2.01H83.97v-2.01h1.28c0.95,0,1.6-0.05,1.92-0.15
			c0.33-0.1,0.61-0.28,0.88-0.53c0.26-0.26,0.43-0.59,0.54-0.98c0.04-0.15,0.06-0.89,0.08-2.21v-20.02c0-0.88-0.11-1.51-0.33-1.88
			c-0.21-0.38-0.51-0.66-0.89-0.82c-0.38-0.17-1.03-0.26-1.97-0.26h-1.51v-2.01H83.99z M93.37,143.57v11.42h7.13
			c2.43,0,4.13-0.13,5.1-0.39c1.39-0.35,2.48-0.99,3.29-1.92c0.81-0.93,1.21-2.11,1.21-3.55c0-1.22-0.29-2.24-0.87-3.07
			c-0.59-0.83-1.38-1.46-2.38-1.87c-1-0.41-2.5-0.62-4.5-0.62L93.37,143.57L93.37,143.57z"/>
		<path d="M149.69,140.95c4.3,0,8.2,0.66,11.67,1.97c3.76,1.42,6.65,3.27,8.67,5.53c2.02,2.27,3.03,4.89,3.03,7.88
			c0,4.63-2.25,8.39-6.77,11.31c-4.51,2.91-10.25,4.36-17.25,4.36c-7.8,0-13.98-1.75-18.53-5.26c-3.72-2.85-5.59-6.27-5.59-10.25
			c0-2.95,1.05-5.61,3.15-7.96c2.1-2.34,5.07-4.2,8.92-5.57C140.86,141.64,145.09,140.95,149.69,140.95L149.69,140.95z
			 M149.69,143.28c-3.52,0-6.53,0.52-9.06,1.54c-2.53,1.02-4.55,2.54-6.08,4.53c-1.52,2-2.28,4.46-2.28,7.39
			c0,2.8,0.75,5.18,2.25,7.12c1.5,1.95,3.51,3.44,6.04,4.47c2.52,1.03,5.36,1.55,8.52,1.55c3.14,0,5.91-0.5,8.33-1.52
			c2.41-1.01,4.41-2.61,5.99-4.79c1.57-2.17,2.37-4.59,2.37-7.24c0-2.71-0.8-5.18-2.37-7.41c-1.36-1.93-3.15-3.34-5.38-4.26
			C155.77,143.74,153,143.28,149.69,143.28L149.69,143.28z"/>
		<path d="M190.1,133.51h17.31c5.33,0,9.01,0.28,11.03,0.86c2.54,0.68,4.62,1.85,6.27,3.5c1.66,1.64,2.47,3.74,2.47,6.28
			c0,2.17-0.62,4.04-1.89,5.62c-1.5,1.9-3.34,3.25-5.5,4.03c-2.16,0.8-5.55,1.2-10.19,1.2h-8.13v9.76c0,1.28,0.1,2.09,0.27,2.43
			c0.25,0.46,0.59,0.79,1.01,0.97c0.43,0.19,1.3,0.28,2.61,0.28h1.48v2.01h-16.79v-2.01h1.01c1.41,0,2.39-0.09,2.89-0.28
			c0.5-0.18,0.88-0.47,1.12-0.86c0.23-0.39,0.35-1.13,0.35-2.22v-25.97c0,0,0.09-1.97-0.14-2.36c-0.21-0.4-0.58-0.7-1.1-0.89
			s-1.54-0.28-3.06-0.33h-1.07v-2.01H190.1z M201.48,136.2v15.44h6.74c3.4,0,5.79-0.25,7.15-0.76c1.37-0.5,2.5-1.39,3.4-2.65
			c0.9-1.26,1.35-2.73,1.35-4.42c0-1.85-0.52-3.39-1.56-4.63c-1.05-1.24-2.47-2.08-4.27-2.52c-1.25-0.3-3.7-0.45-7.33-0.45
			L201.48,136.2L201.48,136.2z"/>
		<path d="M232.36,140.22h16.79v2.01h-1.51c-1.17,0-1.99,0.09-2.48,0.26c-0.48,0.18-0.84,0.43-1.06,0.76
			c-0.22,0.33-0.33,0.92-0.33,1.78v20.92c0,0.98,0.05,1.57,0.16,1.77c0.11,0.26,0.39,0.45,0.8,0.57c0.29,0.09,1.12,0.13,2.5,0.13
			h2.32c0.63,0,4.14,0.06,7.65,0.09c0.37-0.16,0.7-0.37,1-0.64c0.41-0.37,0.94-1.16,1.61-2.36l2.62-4.71
			c-4.34,0.33-9.19-0.08-14.63-2.23c-0.46-0.24-0.4-0.54,0.09-0.59c6.04,1.64,11.16,1.02,16.06,0.07l9.9-17.84h5.38l14.05,25.67
			c0.69,1.29,1.39,2.15,2.09,2.57c0.7,0.42,1.65,0.63,2.83,0.63h0.61v2.01h-16.11v-1.6c0.53-0.03,1.06-0.05,1.57-0.05
			c1.07,0,1.77-0.08,2.11-0.22c0.64-0.28,0.97-0.65,0.97-1.09c0-0.32-0.32-1.09-0.94-2.34l-3.08-6.12h-0.1l-0.89-1.66
			c-4.55-0.77-9.86,1.39-16.35,2.52l-3.16,6c-0.37,0.71-0.57,1.2-0.57,1.48c0,0.31,0.12,0.56,0.35,0.79
			c0.11,0.1,0.24,0.19,0.37,0.28h0.83c0,0,1.11-0.25,1.85-1.08l3.16-3.55c0.38-0.14,0.68-0.08,0.91,0.19l-2.22,5.11h-0.26v1.34
			h-0.62l-0.01,0.67h-34.29v-2.69h1.5c1.32,0.21,2.22,0.13,2.67-0.03c0.46-0.17,0.81-0.43,1.06-0.81c0.24-0.38,0.15-1.94,0.15-1.94
			v-20.74c0-1.13-0.11-1.89-0.33-2.27c-0.23-0.38-0.56-0.66-0.98-0.82c-0.43-0.17-1.33-0.25-2.72-0.25h-1.34L232.36,140.22
			L232.36,140.22z M281.86,156.99l-6.65-12.54l-6.9,13.06c4.26-0.85,8.5-1.5,13.21-0.64L281.86,156.99L281.86,156.99z"/>
		<path d="M302.2,140.89h14.54l25.74,24.75v-18.84c0-1.12-0.2-1.92-0.57-2.41c-0.38-0.49-0.94-0.86-1.7-1.12
			c-0.76-0.25-1.88-0.38-3.36-0.38h-1.08v-2.01h17.46v1.34h-0.99c-1.62,0-2.72,0.07-3.3,0.22c-0.81,0.21-1.42,0.59-1.82,1.13
			c-0.4,0.54-0.6,1.31-0.6,2.29v25.24h-3.55l-29.35-27.56v21.84c0,1.22,0.07,1.95,0.2,2.22c0.17,0.34,0.5,0.64,0.97,0.92
			c0.47,0.28,1.04,0.47,1.67,0.57c0.63,0.11,1.93,0.16,3.88,0.18v1.84h-18.13v-2.01h0.95c1.84,0,3.08-0.12,3.73-0.34
			c0.66-0.22,1.15-0.6,1.5-1.15c0.36-0.54,0.53-1.46,0.53-2.76v-18.02c0-1.32-0.04-2.11-0.14-2.39c-0.23-0.55-0.68-0.93-1.32-1.16
			c-0.65-0.23-1.95-0.36-3.89-0.36h-1.37L302.2,140.89L302.2,140.89z"/>
		<path d="M356.81,142.91h1.99c0,0,0.66-0.69,0.86-0.61c0.19,0.08,0.34,0.19,0.44,0.34c0.1,0.15,0.15,0.32,0.15,0.52
			c0,0.2-0.05,0.38-0.15,0.54c-0.1,0.15-0.25,0.28-0.44,0.37c-0.19,0.09-0.44,0.13-0.76,0.14l1.01,1.24
			c0.08,0.1,0.13,0.17,0.16,0.19c0.07,0.06,0.13,0.1,0.2,0.13c0.07,0.03,0.15,0.04,0.24-0.17h0.09v0.67h-0.85l-1.36-2.01h-0.48v1.13
			c0,0-0.11,0.21-0.11,0.25c0.02,0.06,0.05,0.11,0.1,0.13c0.05,0.03,0.13,0.04,0.26-0.17h0.42l0,0h-2.01l0,0h0.36
			c0.1,0.21,0.17,0.2,0.2,0.19c0.03-0.01,0.07-0.03,0.09-0.07c0.03-0.03,0.05-0.07,0.05-0.12c0.01-0.02-0.03-0.28-0.03-0.28v-2.52
			c0,0,0.03-0.19,0.01-0.24c-0.02-0.05-0.05-0.08-0.09-0.1c-0.04-0.02-0.11-0.03-0.21-0.22h-0.38v0.67H356.81z M357.92,142.23v1.35
			h0.74c0.25,0,0.42-0.01,0.52-0.04c0.14-0.04,0.26-0.12,0.34-0.22c0.08-0.11,0.12-0.25,0.12-0.42c0-0.14-0.03-0.26-0.09-0.36
			c-0.06-0.1-0.14-0.17-0.24-0.22c-0.11-0.05-0.26-0.07-0.46-0.07L357.92,142.23L357.92,142.23z"/>
		<path class="st1" d="M358.72,140.88c1.81,0,3.28,1.46,3.28,3.28c0,1.81-1.46,3.28-3.28,3.28c-1.81,0-3.28-1.47-3.28-3.28
			S356.92,140.88,358.72,140.88L358.72,140.88z M358.72,141.19c1.64,0,2.97,1.33,2.97,2.97c0,1.64-1.33,2.97-2.97,2.97
			s-2.97-1.33-2.97-2.97C355.76,142.52,357.08,141.19,358.72,141.19L358.72,141.19z"/>
		<polygon class="st1" points="267.28,121.42 149.77,121.42 149.77,97.25 267.28,97.25 		"/>
		<path class="st1" d="M273.29,118.89L273.29,118.89L273.29,118.89c0,0.67-0.3,1.34-0.73,1.77c-0.49,0.49-1.1,0.73-1.77,0.73l0,0
			l0,0l0,0l0,0c-0.73,0-1.34-0.24-1.83-0.73c-0.43-0.43-0.73-1.1-0.73-1.77l0,0l0,0l0,0l0,0c0-0.67,0.3-1.34,0.73-1.77l0,0
			c0.49-0.49,1.1-0.73,1.83-0.73l0,0l0,0l0,0l0,0c0.67,0,1.28,0.24,1.77,0.73C272.99,117.55,273.29,118.16,273.29,118.89
			L273.29,118.89L273.29,118.89L273.29,118.89z M272.74,118.89L272.74,118.89L272.74,118.89L272.74,118.89L272.74,118.89
			c0-0.55-0.18-1.04-0.55-1.4c-0.37-0.37-0.85-0.61-1.4-0.61l0,0l0,0l0,0l0,0c-0.55,0-1.1,0.24-1.4,0.61l0,0
			c-0.37,0.37-0.61,0.85-0.61,1.4l0,0l0,0l0,0l0,0c0,0.55,0.24,1.04,0.61,1.4c0.3,0.37,0.85,0.61,1.4,0.61l0,0l0,0l0,0l0,0
			c0.55,0,1.04-0.24,1.4-0.61C272.56,119.93,272.74,119.44,272.74,118.89L272.74,118.89z"/>
		<path class="st1" d="M269.75,117.39c0.24-0.09,0.55-0.09,0.79-0.09c0.43,0,0.73,0.06,0.91,0.24c0.18,0.18,0.3,0.37,0.3,0.61
			c0,0.43-0.3,0.73-0.61,0.85l0,0c0.24,0.06,0.37,0.3,0.43,0.61c0.12,0.49,0.24,1.13,0.24,1.13h-1.36c0-0.12-0.12-0.35-0.17-0.76
			c-0.12-0.41-0.23-0.58-0.64-0.58h-0.35v1.34h0.67v-3.36H269.75z M269.96,118.74h0.43c0.43,0,0.73-0.24,0.73-0.61
			c0-0.43-0.3-0.61-0.73-0.61c-0.24,0-0.37,0.06-0.43,0.06V118.74L269.96,118.74z"/>
		<path class="st2" d="M158.51,109.33c0.49,0.06,0.85,0.12,1.16,0.18c0.37,0,0.67,0.06,0.91,0.06c0.85,0,1.59-0.3,2.2-0.98
			c0.61-0.61,0.91-1.46,0.91-2.44c0-0.73-0.12-1.34-0.43-1.95c-0.3-0.61-0.73-1.04-1.28-1.34c-0.55-0.3-1.16-0.43-1.83-0.43
			c-0.43,0-0.98,0.06-1.65,0.24L158.51,109.33L158.51,109.33z M158.5,109.72v4.65c0,0.97,0.12,1.57,0.36,1.81
			c0.3,0.36,0.78,0.54,1.38,0.54h0.94v0.67h-7.39v-0.67h0.75c0.74,0,1.34-0.23,1.67-0.65c0.13-0.23,0.27-0.83,0.27-1.66v-10.08
			c0-1.01-0.13-1.6-0.41-1.84c-0.33-0.36-0.87-0.53-1.54-0.53h-0.74v-0.67h6.08c1.44,0,2.65,0.18,3.5,0.48
			c0.84,0.24,1.57,0.78,2.17,1.44c0.54,0.72,0.84,1.5,0.84,2.47c0,1.27-0.42,2.35-1.32,3.14c-0.9,0.84-2.16,1.21-3.73,1.21
			c-0.42,0-0.84,0-1.32-0.06C159.53,109.9,159.05,109.84,158.5,109.72L158.5,109.72z"/>
		<path class="st2" d="M182,101.28v0.67h5.37v-0.67h-0.4c-0.6,0-1.02,0.3-1.38,0.79c-0.18,0.24-0.24,0.79-0.24,1.71v6.41
			c0,1.59-0.12,2.81-0.48,3.67c-0.3,0.91-0.9,1.65-1.8,2.26c-0.9,0.61-2.16,0.91-3.73,0.91c-1.69,0-3.01-0.24-3.85-0.85
			c-0.9-0.61-1.5-1.4-1.86-2.44c-0.24-0.67-0.36-1.95-0.36-3.91v-6.17c0-0.98-0.18-1.59-0.42-1.89c-0.3-0.3-0.72-0.49-1.32-0.49
			l-0.94,0v0.67h6.71v-0.67l-0.92,0c-0.69,0-1.14,0.24-1.45,0.61c-0.19,0.3-0.31,0.91-0.31,1.77v6.9c0,0.61,0.06,1.28,0.19,2.07
			s0.31,1.46,0.63,1.89c0.31,0.43,0.76,0.79,1.33,1.1c0.57,0.3,1.26,0.43,2.14,0.43c1.08,0,2.02-0.24,2.9-0.67
			c0.82-0.49,1.39-1.04,1.71-1.77c0.31-0.67,0.51-1.89,0.51-3.55v-6.41c0-0.98-0.12-1.59-0.38-1.83c-0.31-0.37-0.76-0.55-1.39-0.55
			h-0.34H182z"/>
		<path class="st2" d="M197.45,109.33c0.12,0,0.24,0,0.37,0s0.18,0,0.24,0c1.52,0,2.69-0.31,3.42-0.98c0.79-0.67,1.16-1.46,1.16-2.5
			c0-0.98-0.3-1.83-0.91-2.44c-0.61-0.61-1.46-0.91-2.5-0.91c-0.43,0-1.04,0.06-1.77,0.24V109.33L197.45,109.33z M208.89,117.39
			h-4.72l-5.39-7.39c-0.37,0-0.67,0.06-0.9,0.06c-0.12,0-0.24,0-0.37-0.06c-0.12,0,0.05,0-0.06,0v4.44c0,0.99,0.06,1.58,0.29,1.81
			c0.29,0.29,0.7,0.47,1.28,0.47h0.44v0.67h-6.71v-0.67h0.46c0,0,1.16,0.28,1.46-0.21c0.12-0.18,0.24-0.79,0.09-1.71v-10.32
			c0.15-0.98,0.03-1.59-0.22-1.83c-0.3-0.37-0.73-0.55-1.34-0.69h-0.45v-0.67h5.89c1.74,0,2.98,0.12,3.85,0.37
			c0.8,0.24,1.49,0.74,2.05,1.42s0.87,1.42,0.87,2.35c0,1.05-0.31,1.85-1,2.59c-0.62,0.74-1.68,1.23-3.04,1.54l3.35,4.63
			c0.8,1.05,1.43,1.79,1.98,2.1c0.56,0.37,1.24,0.62,2.17,0.68v0.44H208.89z"/>
		<path class="st2" d="M219.61,116.72v0.67h-6.71v-0.67h0.72c0.61,0.46,1.1,0.28,1.4-0.09c0.18-0.24,0.3-0.85-0.11-1.83v-10.32
			c0.41-0.79,0.35-1.34,0.23-1.59c-0.06-0.18-0.24-0.37-0.49-0.49c-0.3-0.18-1.04-0.44-1.04-0.44l-0.71,0v0h6.71l0,0h-0.38
			c0,0-1.1,0.38-1.4,0.75c-0.18,0.24-0.24,0.85-0.23,1.77v10.32c-0.01,0.79-0.01,1.34,0.11,1.59c0.06,0.24,0.24,0.37,0.49,0.55
			c0.37,0.18,0.67,0.24,1.04-0.22h0.61H219.61z"/>
		<path class="st2" d="M225.66,101.95h4.25l9.84,11.97v-9.39c0,0,0.26-1.59,0.01-1.83c-0.3-0.3-0.73-0.49-1.4-0.75h-0.62v0.67h5.37
			v-0.67h-0.3c-0.67,0.26-1.16,0.44-1.4,0.87c-0.18,0.24-0.32,1.71-0.32,1.71v13.53h-0.36l-10.38-12.89v9.9
			c0,0.98,0.06,1.59,0.3,1.83c0.3,0.3,0.72,0.49,1.38,0.49h0.34v0.67h-5.37v-0.67h0.22c0.71,0,1.23-0.24,1.54-0.61
			c0.13-0.24,0.25-0.85,0.25-1.7v-11.08c-0.52-0.55-0.9-0.91-1.1-1.03c-0.25-0.18-0.64-0.37-1.16-0.49
			c-0.19-0.12-0.58-0.12-1.1-0.12v-0.42H225.66z"/>
		<path class="st2" d="M256.74,111.35l-2.81-6.66l-2.87,6.66H256.74L256.74,111.35z M256.78,112.02h-5.97l-1.13,2.51
			c-0.24,0.6-0.36,1.08-0.36,1.37c0,0.3,0.06,0.48,0.3,0.66c0.24,0.18,0.77,0.36,1.55,0.36v0.48h-5.37v-0.49
			c0.67-0.12,1.1-0.24,1.34-0.43c0.37-0.43,0.85-1.21,1.34-2.36l5.84-13.51h0.37l5.72,13.63c0.49,1.09,0.91,1.82,1.28,2.12
			c0.37,0.37,0.91,0.55,1.58,0.55v0.49h-6.71v-0.48c0.69,0,1.13-0.12,1.38-0.3c0.25-0.18,0.38-0.42,0.38-0.66
			c0-0.36-0.19-0.89-0.5-1.67L256.78,112.02L256.78,112.02z"/>
		<path class="st3" d="M148.8,121.42h-24.3h-0.24v-0.24V97.55v-0.31h0.24h24.3h0.3v0.31v23.63v0.24L148.8,121.42L148.8,121.42z
			 M124.26,120.75h24.17v-23.5h-24.17V120.75L124.26,120.75z"/>
		<polygon class="st3" points="132.99,105.98 125.6,105.98 125.6,98.59 132.99,98.59 		"/>
		<polygon class="st3" points="140.37,112.69 132.99,112.69 132.99,105.31 140.37,105.31 		"/>
		<polygon class="st3" points="147.09,105.98 139.7,105.98 139.7,98.59 147.09,98.59 		"/>
		<polygon class="st3" points="132.99,120.08 125.6,120.08 125.6,112.69 132.99,112.69 		"/>
		<polygon class="st3" points="147.09,120.08 139.7,120.08 139.7,112.69 147.09,112.69 		"/>
	</g>
</g>
</svg>
