<?xml version="1.0" encoding="utf-8"?>
<!-- Generator: Adobe Illustrator 27.1.0, SVG Export Plug-In . SVG Version: 6.00 Build 0)  -->
<svg version="1.1" id="Layer_1" xmlns="http://www.w3.org/2000/svg" xmlns:xlink="http://www.w3.org/1999/xlink" x="0px" y="0px"
	 viewBox="0 0 385 272" style="enable-background:new 0 0 385 272;" xml:space="preserve">
<style type="text/css">
	.st0{fill:none;}
	.st1{fill:#E2001A;}
</style>
<rect x="169" y="29" class="st0" width="30" height="12"/>
<g>
	<path class="st1" d="M182.76,174.99h-7.03l0,0c-0.23,0-0.35-0.24-0.35-0.36v-21.9c0.12-0.36,0.12-0.85,0-1.21
		c-0.35-2.06-2.22-3.39-4.22-3.15c-1.99,0.36-3.28,2.3-3.04,4.36v27.34c0,1.09,0.82,2.06,1.99,2.18h12.65c0.12,0,0.23,0,0.35,0
		c1.87-0.12,3.28-1.81,3.16-3.75C186.27,176.2,184.75,174.87,182.76,174.99z M156.75,149.58l-19.36,26.13
		c-0.48,0.6-0.73,1.33-0.73,2.18c0,1.09,0.48,2.3,1.57,2.9c1.69,1.09,3.75,0.73,4.96-0.73l3.75-5.08h9.07v2.9
		c0.12,2.06,1.81,3.63,3.75,3.51l0,0c2.06,0,3.51-1.69,3.51-3.51V152c0-1.09-0.48-2.18-1.21-2.78
		C160.5,147.77,158.08,147.89,156.75,149.58z M156.03,167.73h-3.39c-0.12,0-0.24-0.12-0.24-0.24l0,0l3.63-4.96
		C156.03,162.41,156.03,167.73,156.03,167.73z M146.23,152.7c0-1.94-1.57-3.51-3.39-3.51c-0.97,0-1.94,0.36-2.54,0.97l-8.23,8.59
		c-0.12,0.12-0.24,0.12-0.36,0.12s-0.24,0-0.24-0.12l-8.23-8.59c-0.6-0.6-1.57-1.09-2.54-1.09c-1.94,0-3.39,1.57-3.39,3.39
		c0,0.85,0.36,1.81,0.85,2.42l10.04,11.49l0.12,12.1c0,1.94,1.57,3.51,3.51,3.51c1.94,0,3.51-1.57,3.51-3.51l0.24-11.98l9.8-11.49
		C145.98,154.27,146.23,153.42,146.23,152.7z M103.88,149.07c-9.07,0-16.45,7.38-16.45,16.45c0,9.07,7.38,16.45,16.45,16.45
		s16.45-7.5,16.45-16.58C120.33,156.57,112.95,149.19,103.88,149.07z M103.88,174.23c-4.96,0-8.83-3.87-8.83-8.83
		s3.87-8.83,8.83-8.83c4.96,0,8.83,3.87,8.83,8.83C112.71,170.36,108.84,174.23,103.88,174.23z M277.5,148.34
		c-1.81,0.12-2.9,3.27-2.9,3.27v15.18c0,0.12-0.12,0.24-0.24,0.24s-0.12,0-0.12-0.12l-8.78-15.54c-1.3-2.37-4.39-3.08-6.64-1.66
		c-1.3,0.83-2.25,2.37-2.37,3.91v25.08c0,0,1.21,3.51,3.02,3.39s3.02-3.39,3.02-3.39v-15.24c0-0.12,0.12-0.24,0.24-0.24
		s0.12,0,0.12,0.12l9.07,16c1.19,2.27,4.06,2.98,6.33,1.79c1.55-0.84,2.39-2.39,2.39-3.94v-25.47
		C280.64,151.73,279.56,148.22,277.5,148.34z M81.01,168.1c2.98-1.81,4.96-4.96,4.84-8.35c0,0,0,0,0-0.12
		c0.12-5.93-4.84-10.89-10.92-11.01c-2.98-0.24-6.08,0.73-8.19,2.78c-2.36,2.3-3.1,5.2-3.1,8.35l0.5,18.27
		c0,1.94,1.61,3.51,3.6,3.51c1.99,0,3.6-1.57,3.6-3.51l1.21-8.26l0,0c-0.24-0.24,0.12-0.81,0.12-0.81s-0.71,0-0.59,0l8.81,11.74
		c0.62,0.6,1.36,0.85,2.36,0.85c1.99,0,3.47-1.57,3.6-3.39c0-0.48-0.12-0.97-0.37-1.57L81.01,168.1z M75.45,164.1
		c-0.25,0-0.38,0-0.63,0c-2.13-0.13-3.5-2-3.38-3.88c0.13-2.13,2-3.5,3.88-3.38c0.25,0,0.38,0,0.63,0c2.13,0.13,3.5,2,3.38,3.88
		C79.21,162.73,77.33,164.6,75.45,164.1z M221.72,170.96c-0.48,0-1.09,0.12-1.69,0.36l-2.9,1.94c-1.33,0.85-3.02,1.33-4.72,1.33
		c-5.08-0.24-8.83-4.6-8.59-9.44c0.24-4.72,3.87-8.35,8.59-8.59c1.69,0,3.27,0.48,4.72,1.33l2.78,1.94
		c0.48,0.24,0.97,0.36,1.69,0.36c1.94,0,3.51-1.57,3.51-3.51l0,0c0-0.73-0.24-1.69-0.85-2.3c-2.78-3.27-6.9-5.2-11.37-5.2
		c-9.07,0-16.45,7.38-16.45,16.45l0,0c0,8.71,6.78,15.97,15.49,16.45c4.72,0,9.07-1.94,12.34-5.32c0.48-0.6,0.85-1.33,0.73-2.3
		C225.35,172.54,223.66,170.96,221.72,170.96z M289.11,148.77c-2.11,0-3.63,1.76-3.63,3.63v25.64c0,2.11,1.76,3.63,3.63,3.63
		c2.11,0,3.63-1.76,3.63-3.63V152.4C292.74,150.41,291.22,148.77,289.11,148.77z M233.95,149.46c-0.71-0.73-1.79-1.21-2.86-1.21
		c-2.14,0-3.69,0.97-3.69,3.15v26.5l0,0c0,2.06,1.67,3.51,3.57,3.51s3.57-1.57,3.69-3.51v-2.9h8.93l3.69,5.08
		c0.6,0.85,1.79,1.33,2.86,1.33c2.02,0,3.45-1.69,3.45-3.51c0-0.73-0.24-1.57-0.71-2.18L233.95,149.46z M238.3,167.49
		c0,0.12-0.12,0.24-0.24,0.24h-3.39v-5.44l3.63,5.08C238.42,167.37,238.42,167.37,238.3,167.49z M318.63,148.34
		c-1.81,0.12-2.9,3.27-2.9,3.27v15.18c0,0.12-0.12,0.24-0.24,0.24s-0.12,0-0.24-0.12l-8.66-15.54c-1.3-2.37-4.39-3.08-6.64-1.66
		c-1.3,0.83-2.25,2.37-2.37,3.91v25.08c0,0,0.97,3.63,2.9,3.63s3.15-3.63,3.15-3.63v-15.24c0-0.12,0.12-0.24,0.24-0.24
		s0.12,0,0.12,0.12l9.07,16c1.19,2.27,4.06,2.98,6.33,1.79c1.55-0.84,2.39-2.39,2.39-3.94v-25.47
		C321.78,151.73,320.57,148.22,318.63,148.34z M332.67,151.36v-0.24c-0.97-0.97-2.54-1.54-2.54-1.54h-1.09c0,0-0.48,0.57,0,0.69
		v3.27c-0.48,0.36-0.36,0.48,0,0.48s0.48-0.24,1.21-0.48V152h-0.48l0.6,1.54c0.12,0.24,0.24,0.48,0.6,0.48
		c0.36,0,0.48-0.12,0.48-0.36c0-0.12,0-0.12,0-0.24l-0.73-1.09C331.22,152.45,331.7,151.85,332.67,151.36z M330.25,152h-1.21v-1.21
		h1.21c0.36-0.16,0.6-0.03,0.6,0.33C330.85,151.49,330.61,151.61,330.25,152z M330.13,148.1L330.13,148.1
		c-2.18,0-3.87,1.81-3.87,3.87c0,2.06,1.81,3.87,3.87,3.87s3.87-1.81,3.87-3.87C333.88,149.91,332.19,148.1,330.13,148.1z
		 M330.13,154.87L330.13,154.87c-1.69,0-2.9-1.21-2.9-2.9c0-1.69,1.21-2.9,2.9-2.9c1.69,0,2.9,1.21,2.9,2.9
		C333.03,153.54,331.7,154.87,330.13,154.87z"/>
	<path class="st1" d="M225.23,131.4c-7.74-5.69-19.36-9.07-31.34-9.07s-23.71,3.39-31.34,9.07c-0.73,0.48-1.09,1.33-1.09,2.3
		c0,1.69,1.21,2.9,2.9,2.9l0,0c0.6,0,1.21-0.24,1.81-0.6c5.2-3.87,15.24-7.99,27.95-7.99c12.7,0,22.62,4.11,27.83,7.99l0.12,0.12
		c1.21,0.85,3.15,0.6,3.99-0.73C226.8,134.06,226.56,132.25,225.23,131.4z M193.9,128.77c-11.13,0-21.66,3.27-28.19,8.71
		c0,0,0,0-0.12,0c-0.73,0.73-0.85,1.94-0.24,2.78c0.36,0.48,0.85,0.73,1.57,0.73c0.48,0,0.85-0.12,1.21-0.48
		c5.81-4.84,15.49-7.86,25.65-7.86s19.72,2.9,25.65,7.86c0.85,0.73,2.18,0.6,2.78-0.24c0.73-0.85,0.6-2.18-0.24-2.78
		C215.43,132.16,204.91,128.77,193.9,128.77z M151.55,99.94L151.55,99.94L151.55,99.94L151.55,99.94z M157.84,108.29
		c0.85-3.51-1.21-7.02-4.84-8.11c-0.48-0.12-1.09-0.24-1.69-0.24c-3.63,0-6.53,2.9-6.53,6.53s2.9,6.53,6.53,6.53
		C154.57,113.25,157.12,111.2,157.84,108.29z M193.9,118.46c3.63,0,6.53-2.9,6.53-6.53s-2.9-6.53-6.53-6.53
		c-3.63,0-6.53,2.9-6.53,6.53S190.15,118.46,193.9,118.46z M193.9,101.76c3.63,0,6.53-2.9,6.53-6.53s-2.9-6.65-6.53-6.65
		c-3.63,0-6.53,2.9-6.53,6.53C187.24,98.86,190.15,101.76,193.9,101.76z M174.54,107.48c-3.51,0.97-5.57,4.72-4.6,8.23
		c0.73,2.78,3.39,4.72,6.29,4.84h0.12c0.48,0,1.09-0.12,1.69-0.24c3.51-0.97,5.57-4.6,4.72-8.11c-0.73-2.9-3.39-4.96-6.41-4.96
		C175.63,107.24,175.14,107.36,174.54,107.48z M166.31,122.57c0.85-3.51-1.21-7.26-4.84-8.11c-0.48-0.12-1.09-0.24-1.69-0.24l0,0
		c-1.09,0-2.3,0.36-3.39,0.85c-1.57,0.85-2.66,2.42-3.02,3.99c-0.48,1.81-0.24,3.51,0.73,5.08c1.09,2.06,3.27,3.15,5.69,3.27
		c1.09,0,2.42-0.24,3.39-0.85C164.74,125.71,165.95,124.26,166.31,122.57z M209.75,120.39c0.6,0.12,1.09,0.24,1.81,0.24
		c3.63,0,6.53-3.02,6.53-6.53c0-3.02-2.06-5.57-4.84-6.29c-0.6-0.12-1.09-0.24-1.81-0.24c-3.63,0-6.53,3.02-6.53,6.65
		C204.78,117,206.84,119.67,209.75,120.39z M214.1,104.42c0.48,0.12,1.09,0.24,1.81,0.24c3.63,0,6.53-3.02,6.53-6.53
		c0-3.02-2.06-5.57-4.84-6.29c-0.6-0.12-1.09-0.24-1.81-0.24c-3.63,0-6.53,3.02-6.53,6.65C209.26,100.91,211.32,103.57,214.1,104.42
		z M231.28,115.19c-0.97-0.6-2.18-0.85-3.27-0.85c-3.63,0-6.53,2.9-6.53,6.53c0,0.48,0.12,1.09,0.24,1.69
		c0.36,1.69,1.57,3.15,3.02,3.99c3.15,1.94,7.26,0.73,9.07-2.42c0.85-1.57,1.09-3.27,0.73-5.08
		C233.82,117.61,232.73,116.16,231.28,115.19z M242.77,105.03c-0.36-1.69-1.57-3.15-3.02-3.99c-3.15-1.94-7.26-0.73-9.07,2.42
		c-0.85,1.57-1.09,3.27-0.73,5.08c0.36,1.69,1.57,3.15,3.02,3.99c3.15,1.94,7.26,0.85,9.07-2.3
		C243.02,108.53,243.26,106.48,242.77,105.03z M172,104.66L172,104.66c0.6,0,1.21-0.12,1.81-0.24c3.51-0.97,5.57-4.72,4.72-8.11
		c-0.73-2.9-3.39-4.84-6.29-4.84c-0.6,0-1.09,0.12-1.81,0.24c-3.51,0.97-5.57,4.72-4.72,8.11
		C166.43,102.61,168.97,104.66,172,104.66z"/>
</g>
</svg>
