<?xml version="1.0" encoding="utf-8"?>
<!-- Generator: Adobe Illustrator 27.1.0, SVG Export Plug-In . SVG Version: 6.00 Build 0)  -->
<svg version="1.1" id="Layer_1" xmlns="http://www.w3.org/2000/svg" xmlns:xlink="http://www.w3.org/1999/xlink" x="0px" y="0px"
	 viewBox="0 0 385 272" style="enable-background:new 0 0 385 272;" xml:space="preserve">
<style type="text/css">
	.st0{fill:none;}
	.st1{fill:#472F92;}
</style>
<rect x="169" y="29" class="st0" width="30" height="12"/>
<g>
	<g>
		<g>
			<g>
				<g>
					<path class="st1" d="M41.43,187.69v-11.48h1.63v10.03h5.54v1.5h-7.17V187.69z"/>
					<path class="st1" d="M53.68,187.69l5.04-11.48h1.23l5.08,11.48H63.3l-1.5-3.4h-4.95l-1.5,3.4H53.68z M57.49,182.83h3.63
						l-1.82-4.13L57.49,182.83z"/>
					<path class="st1" d="M80.77,187.69v-11.48h1.45l7.67,8.94v-8.94h1.68v11.48h-1.5l-7.67-8.94v8.94H80.77z"/>
					<path class="st1" d="M99.24,176.21h1.68v6.58c0,0.73,0.05,1.27,0.14,1.54c0.09,0.32,0.23,0.54,0.41,0.77
						c0.36,0.41,0.77,0.68,1.23,0.91c0.45,0.18,1,0.27,1.59,0.27c1,0,1.82-0.27,2.45-0.77c0.59-0.5,0.91-1.18,0.91-2.04v-7.35h1.68
						v7.4c0,1.27-0.45,2.31-1.41,3.13c-0.95,0.82-2.13,1.18-3.63,1.18c-0.86,0-1.68-0.14-2.41-0.45c-0.73-0.32-1.32-0.77-1.82-1.36
						c-0.32-0.36-0.5-0.77-0.64-1.18c-0.14-0.45-0.18-1.09-0.18-2L99.24,176.21L99.24,176.21z"/>
					<path class="st1" d="M120.16,187.69v-9.98h-4.27v-1.5h10.21v1.5h-4.27v9.98H120.16z"/>
					<path class="st1" d="M132.73,187.69v-11.48h3.4c1.18,0,2.09,0.27,2.72,0.82s0.95,1.32,0.95,2.31c0,0.77-0.18,1.36-0.54,1.82
						s-0.91,0.82-1.63,1.04c0.18,0.09,0.36,0.23,0.54,0.41c0.18,0.18,0.41,0.45,0.68,0.86l2.81,4.18h-2l-2-3
						c-0.59-0.91-1.09-1.5-1.45-1.72c-0.36-0.27-0.82-0.36-1.32-0.36h-0.5v5.13H132.73L132.73,187.69z M134.41,181.2h1.36
						c0.77,0,1.36-0.14,1.72-0.45c0.41-0.32,0.59-0.77,0.59-1.36c0-0.64-0.18-1.09-0.54-1.36c-0.36-0.27-0.95-0.45-1.77-0.45h-1.36
						L134.41,181.2L134.41,181.2z"/>
					<path class="st1" d="M147.71,187.69v-11.48h1.68v11.48H147.71z"/>
					<path class="st1" d="M167.13,184.97v1.86c-0.68,0.36-1.36,0.64-2.09,0.82c-0.73,0.18-1.41,0.27-2.09,0.27
						c-0.68,0-1.32-0.09-1.91-0.27c-0.59-0.18-1.18-0.45-1.72-0.77c-0.86-0.54-1.54-1.27-2-2.13c-0.5-0.86-0.73-1.82-0.73-2.81
						c0-0.77,0.14-1.54,0.5-2.27c0.32-0.73,0.77-1.36,1.36-1.91c0.64-0.59,1.32-1,2.09-1.32c0.77-0.27,1.63-0.45,2.59-0.45
						c0.64,0,1.32,0.09,1.95,0.23c0.64,0.14,1.32,0.36,2.04,0.68v1.77c-0.73-0.41-1.41-0.68-2.09-0.86
						c-0.64-0.18-1.27-0.27-1.91-0.27c-1.36,0-2.5,0.41-3.36,1.27c-0.91,0.82-1.32,1.91-1.32,3.13s0.45,2.27,1.32,3.13
						c0.86,0.82,1.95,1.27,3.27,1.27c0.68,0,1.36-0.09,2.04-0.32C165.73,185.78,166.45,185.42,167.13,184.97z"/>
					<path class="st1" d="M174.39,187.69v-11.48h1.68v11.48H174.39z"/>
					<path class="st1" d="M183.29,181.93c0-0.77,0.18-1.5,0.45-2.22c0.32-0.73,0.77-1.36,1.36-1.91c0.59-0.59,1.27-1,2-1.27
						c0.77-0.32,1.54-0.45,2.36-0.45c0.86,0,1.63,0.14,2.41,0.45c0.77,0.32,1.41,0.73,2,1.27c0.59,0.59,1.04,1.23,1.36,1.95
						c0.32,0.73,0.45,1.5,0.45,2.31c0,0.77-0.14,1.54-0.45,2.27c-0.32,0.73-0.77,1.36-1.32,1.91c-0.59,0.59-1.27,1-2.04,1.32
						c-0.77,0.27-1.54,0.45-2.41,0.45c-0.82,0-1.63-0.14-2.36-0.45c-0.77-0.32-1.41-0.73-2-1.27c-0.59-0.59-1.04-1.23-1.36-1.95
						C183.42,183.51,183.29,182.74,183.29,181.93z M185.06,181.97c0,0.59,0.09,1.13,0.32,1.68c0.23,0.54,0.54,1,0.95,1.41
						c0.41,0.41,0.86,0.73,1.45,0.95c0.54,0.23,1.13,0.32,1.72,0.32c0.59,0,1.18-0.09,1.72-0.32c0.54-0.23,1-0.54,1.45-0.95
						c0.41-0.41,0.73-0.86,0.95-1.41c0.23-0.54,0.32-1.09,0.32-1.68s-0.09-1.13-0.32-1.68c-0.23-0.54-0.54-1-1-1.45
						c-0.41-0.41-0.91-0.73-1.45-0.95c-0.54-0.23-1.09-0.32-1.72-0.32c-0.59,0-1.13,0.14-1.68,0.32c-0.54,0.23-1.04,0.54-1.45,0.95
						c-0.41,0.41-0.73,0.86-0.95,1.41C185.15,180.79,185.06,181.38,185.06,181.97z M188.37,175.12l1.72-2.86h1.5l-2.36,2.86H188.37z
						"/>
					<path class="st1" d="M202.85,187.69v-11.48h1.45l7.67,8.94v-8.94h1.68v11.48h-1.5l-7.67-8.94v8.94H202.85z"/>
					<path class="st1" d="M231.16,187.69v-11.48h1v11.48H231.16z"/>
					<path class="st1" d="M240.24,187.69v-11.48h1l8.53,10.03v-10.03h0.95v11.48h-0.86l-8.62-10.17v10.17H240.24z"/>
					<path class="st1" d="M262.75,176.21c0.91,0,1.63,0.09,2.27,0.27c0.64,0.18,1.18,0.45,1.68,0.82c0.73,0.54,1.32,1.23,1.72,2.04
						c0.41,0.82,0.64,1.72,0.64,2.68c0,0.95-0.23,1.82-0.64,2.63c-0.41,0.82-1,1.5-1.72,2.04c-0.5,0.36-1.09,0.64-1.72,0.82
						c-0.64,0.18-1.36,0.27-2.27,0.27h-4.04V176.3h4.08V176.21z M262.52,177.02h-2.81v9.85h2.81c0.77,0,1.45-0.05,2-0.18
						c0.54-0.14,1.04-0.32,1.41-0.59c0.64-0.41,1.18-1,1.54-1.72s0.54-1.54,0.54-2.41s-0.18-1.68-0.54-2.41
						c-0.36-0.73-0.86-1.32-1.54-1.72c-0.41-0.27-0.86-0.45-1.41-0.59C263.93,177.12,263.29,177.02,262.52,177.02z"/>
					<path class="st1" d="M276.5,187.69v-11.48h1v11.48H276.5z"/>
					<path class="st1" d="M295.29,186.83c-0.68,0.36-1.36,0.64-2.04,0.82c-0.68,0.18-1.36,0.27-2,0.27c-0.68,0-1.32-0.09-1.91-0.27
						c-0.59-0.18-1.18-0.45-1.68-0.77c-0.86-0.54-1.5-1.27-2-2.13c-0.45-0.86-0.73-1.82-0.73-2.86c0-0.77,0.14-1.54,0.45-2.27
						c0.32-0.73,0.77-1.36,1.32-1.91c0.59-0.59,1.27-1,2.04-1.32c0.77-0.32,1.59-0.45,2.45-0.45c0.64,0,1.32,0.09,1.95,0.27
						c0.68,0.18,1.36,0.45,2.09,0.82v0.95c-0.77-0.41-1.5-0.73-2.18-0.91c-0.68-0.18-1.32-0.27-1.91-0.27
						c-0.54,0-1.04,0.05-1.54,0.23c-0.5,0.14-0.95,0.36-1.41,0.64c-0.73,0.5-1.27,1.09-1.68,1.82c-0.41,0.73-0.59,1.54-0.59,2.45
						c0,0.68,0.14,1.32,0.41,1.95c0.27,0.64,0.64,1.18,1.09,1.68c0.45,0.5,1.04,0.86,1.68,1.09c0.64,0.27,1.36,0.41,2.09,0.41
						c0.59,0,1.23-0.09,1.91-0.27c0.68-0.18,1.41-0.5,2.18-0.91V186.83z"/>
					<path class="st1" d="M300.64,187.69l5.08-11.62h0.36l5.08,11.62h-1l-1.72-4.04h-5.13l-1.72,4.04H300.64z M303.68,182.92h4.45
						l-2.22-5.22L303.68,182.92z"/>
					<path class="st1" d="M321.47,176.21c0.91,0,1.63,0.09,2.27,0.27c0.64,0.18,1.18,0.45,1.68,0.82c0.73,0.54,1.32,1.23,1.72,2.04
						c0.41,0.82,0.64,1.72,0.64,2.68c0,0.95-0.23,1.82-0.64,2.63s-1,1.5-1.72,2.04c-0.5,0.36-1.09,0.64-1.68,0.82
						c-0.64,0.18-1.36,0.27-2.27,0.27h-4.04V176.3h4.04V176.21z M321.2,177.02h-2.81v9.85h2.81c0.77,0,1.41-0.05,2-0.18
						c0.54-0.14,1.04-0.32,1.41-0.59c0.64-0.41,1.18-1,1.54-1.72s0.54-1.54,0.54-2.41s-0.18-1.68-0.54-2.41
						c-0.36-0.73-0.86-1.32-1.54-1.72c-0.41-0.27-0.86-0.45-1.41-0.59C322.65,177.12,321.97,177.02,321.2,177.02z"/>
					<path class="st1" d="M333.05,187.69l5.08-11.62h0.36l5.08,11.62h-1l-1.72-4.04h-5.13l-1.72,4.04H333.05z M336.09,182.92h4.45
						l-2.22-5.22L336.09,182.92z"/>
				</g>
			</g>
		</g>
		<path class="st1" d="M154.38,132.28c-4.72,1.68-10.03,3.45-10.03,9.3c0,3.86,2.86,7.22,7.22,7.22c2.72,0,5.4-0.95,7.94-3
			c0.54,2.04,1.91,3,4.49,3c1.86,0,2.95-0.45,5.67-2.27v-3.54c-1.36,1-2.5,1.59-3.09,1.59c-0.73,0-1.13-0.36-1.13-1.5v-15.2
			c0-6.72-4.72-9.71-10.71-9.71c-4.27,0-7.49,1.32-9.8,3.99v6.35c2.81-3.31,6.13-4.86,9.39-4.86c3.54,0,5.31,1.54,5.31,5.17v1.59
			L154.38,132.28z M159.6,142.22c-1.59,1.54-3.31,2.45-5.13,2.45c-2.5,0-4.22-1.72-4.22-4.18c0-3.45,4.36-5.17,9.35-6.85V142.22z
			 M110.63,148.21h5.85v-29.5h-5.85V148.21z M125.93,139.59c0,5.31,3.22,9.21,9.58,9.21c1.91,0,5.04-0.82,7.08-1.95v-5.45
			c-2.41,1.45-4.54,2.18-6.67,2.18c-1.72,0-4.18-1-4.18-4.49v-15.02h9.3v-5.31h-9.3v-6.08l-10.98,10.71v0.68h5.17V139.59z
			 M180.75,103.46h-5.85v44.75h5.85V103.46z M113.49,115.17c1.59,0,2.9-1.32,2.9-2.95c0-1.59-1.32-2.95-2.9-2.95
			c-1.63,0-3,1.32-3,2.95C110.5,113.85,111.81,115.17,113.49,115.17z M90.12,97.29l-7.9,18.15L68.34,83.99h-6.17l17.06,38.44
			l-14.52,33.63h233.53l25.41-58.81H90.12V97.29z M183.79,152.06h-113c1-2.31,5.81-13.43,10.66-24.64l9.48,21.37h1.91l12.57-29.13
			h-6.08l-7.49,17.56l-7.4-16.79c4.22-9.8,7.9-18.24,8.3-19.2H205.8L183.79,152.06z M230.8,147.16c-1.95,0.86-5.63,1.63-8.67,1.63
			c-8.71,0-14.79-6.04-14.79-14.57c0-9.62,5.54-15.7,14.39-15.7c3.36,0,5.63,0.82,8.44,2v6.17c-3.31-2.22-5.49-2.86-8.03-2.86
			c-5.22,0-8.89,3.95-8.89,9.85c0,6.04,3.9,9.62,9.85,9.62c2.45,0,4.81-0.59,7.71-1.91V147.16z M259.76,146.53
			c-2.68,1.82-3.72,2.27-5.58,2.27c-2.54,0-3.9-0.86-4.4-2.95c-2.5,2-5.17,2.95-7.85,2.95c-4.22,0-7.08-3.36-7.08-7.08
			c0-5.81,5.22-7.53,9.89-9.21l5.08-1.86v-1.54c0-3.63-1.72-5.13-5.22-5.13c-3.18,0-6.44,1.5-9.21,4.81v-6.31
			c2.31-2.63,5.45-3.95,9.67-3.95c5.85,0,10.53,3,10.53,9.62v14.98c0,1.09,0.45,1.5,1.13,1.5c0.59,0,1.72-0.59,3.04-1.54V146.53
			L259.76,146.53z M289.25,148.21h-5.76v-18.02c0-4.27-2.22-7.08-5.72-7.08c-2.54,0-4.54,1.13-7.26,4.22v20.88h-5.76v-29.13h5.76
			v3.86h0.14c2.18-2.81,5.4-4.4,8.71-4.4c5.49,0,9.89,3.77,9.89,11.71V148.21z M240.6,140.67c0,2.36,1.72,4.08,4.13,4.08
			c1.82,0,3.54-0.91,5.04-2.36v-8.49C244.87,135.5,240.6,137.23,240.6,140.67z"/>
	</g>
</g>
</svg>
